<svg width="945" height="1060" viewBox="0 0 945 1060" fill="none" xmlns="http://www.w3.org/2000/svg">
<g clip-path="url(#clip0_324_5796)">
<path d="M677.004 767V750.2H679.212V763.28L687.9 750.2H690.036V767H687.78V754.112L679.212 767H677.004ZM699.331 767.312C698.035 767.312 696.875 766.984 695.851 766.328C694.843 765.656 694.131 764.76 693.715 763.64L695.827 762.8C696.099 763.584 696.539 764.184 697.147 764.6C697.771 765.016 698.499 765.224 699.331 765.224C699.955 765.224 700.547 765.136 701.107 764.96C701.667 764.784 702.123 764.48 702.475 764.048C702.827 763.6 703.003 762.984 703.003 762.2C703.003 761.304 702.659 760.592 701.971 760.064C701.299 759.52 700.379 759.248 699.211 759.248H697.939V757.136H699.211C700.219 757.136 701.011 756.912 701.587 756.464C702.179 756 702.475 755.304 702.475 754.376C702.475 753.576 702.179 752.976 701.587 752.576C700.995 752.16 700.243 751.96 699.331 751.976C698.547 751.976 697.883 752.192 697.339 752.624C696.795 753.04 696.347 753.624 695.995 754.376L693.979 753.368C694.475 752.312 695.195 751.464 696.139 750.824C697.083 750.168 698.147 749.84 699.331 749.84C700.355 749.84 701.283 750.016 702.115 750.368C702.947 750.704 703.611 751.2 704.107 751.856C704.619 752.512 704.875 753.328 704.875 754.304C704.875 755.2 704.619 756.008 704.107 756.728C703.611 757.448 702.947 757.92 702.115 758.144C703.059 758.4 703.835 758.912 704.443 759.68C705.067 760.432 705.379 761.32 705.379 762.344C705.379 763.928 704.835 765.152 703.747 766.016C702.675 766.88 701.203 767.312 699.331 767.312ZM708.434 767V750.2H715.082C716.57 750.2 717.73 750.568 718.562 751.304C719.41 752.024 719.834 753.072 719.834 754.448C719.834 755.392 719.618 756.184 719.186 756.824C718.754 757.464 718.186 757.912 717.482 758.168C718.394 758.376 719.138 758.88 719.714 759.68C720.306 760.464 720.602 761.4 720.602 762.488C720.602 763.992 720.154 765.12 719.258 765.872C718.378 766.624 717.09 767 715.394 767H708.434ZM710.618 764.936H715.13C716.218 764.936 717.01 764.72 717.506 764.288C718.002 763.84 718.25 763.152 718.25 762.224C718.25 761.328 717.954 760.632 717.362 760.136C716.77 759.64 716.018 759.392 715.106 759.392H710.618V764.936ZM710.618 757.304H714.842C715.69 757.304 716.338 757.072 716.786 756.608C717.234 756.144 717.458 755.528 717.458 754.76C717.458 753.096 716.538 752.264 714.698 752.264H710.618V757.304ZM723.645 767V750.2H725.853V763.28L734.541 750.2H736.677V767H734.421V754.112L725.853 767H723.645ZM740.356 767V750.2H742.54V757.16H750.964V750.2H753.172V767H750.964V759.2H742.54V767H740.356ZM756.832 767V750.2H759.04V763.28L767.728 750.2H769.864V767H767.608V754.112L759.04 767H756.832ZM777.743 767V752.264H772.463V750.2H785.207V752.264H779.951V767H777.743ZM787.84 767V750.2H798.712V752.264H790.024V757.376H797.944V759.464H790.024V764.936H799V767H787.84ZM802.384 770.792L801.76 769.664C802.512 769.472 803.104 769.136 803.536 768.656C803.968 768.192 804.184 767.68 804.184 767.12C804.184 766.864 804.144 766.64 804.064 766.448C803.952 766.672 803.784 766.856 803.56 767C803.336 767.144 803.096 767.216 802.84 767.216C802.44 767.216 802.096 767.088 801.808 766.832C801.536 766.576 801.4 766.224 801.4 765.776C801.4 765.328 801.56 764.984 801.88 764.744C802.2 764.488 802.584 764.352 803.032 764.336C803.736 764.304 804.328 764.56 804.808 765.104C805.288 765.632 805.528 766.32 805.528 767.168C805.528 768.048 805.24 768.792 804.664 769.4C804.088 770.008 803.328 770.472 802.384 770.792ZM822.408 767.36C820.888 767.36 819.544 767 818.376 766.28C817.208 765.56 816.288 764.544 815.616 763.232C814.96 761.92 814.632 760.376 814.632 758.6C814.632 756.824 814.96 755.28 815.616 753.968C816.288 752.64 817.208 751.616 818.376 750.896C819.544 750.16 820.888 749.792 822.408 749.792C823.784 749.792 825.016 750.096 826.104 750.704C827.192 751.296 828.08 752.136 828.768 753.224L826.824 754.376C826.328 753.608 825.704 753.016 824.952 752.6C824.2 752.184 823.352 751.976 822.408 751.976C821.32 751.976 820.36 752.248 819.528 752.792C818.712 753.336 818.072 754.104 817.608 755.096C817.144 756.072 816.912 757.24 816.912 758.6C816.912 759.944 817.144 761.112 817.608 762.104C818.072 763.08 818.712 763.84 819.528 764.384C820.36 764.928 821.32 765.2 822.408 765.2C823.352 765.2 824.2 764.992 824.952 764.576C825.704 764.16 826.328 763.568 826.824 762.8L828.768 763.952C828.08 765.024 827.192 765.864 826.104 766.472C825.016 767.064 823.784 767.36 822.408 767.36ZM835.798 767V752.264H830.518V750.2H843.262V752.264H838.006V767H835.798ZM845.895 767V750.2H853.407C854.991 750.2 856.215 750.568 857.079 751.304C857.959 752.04 858.399 753.208 858.399 754.808C858.399 756.424 857.959 757.608 857.079 758.36C856.215 759.112 854.991 759.488 853.407 759.488H848.079V767H845.895ZM848.079 757.4H853.143C854.103 757.4 854.831 757.2 855.327 756.8C855.839 756.384 856.095 755.72 856.095 754.808C856.095 753.912 855.839 753.264 855.327 752.864C854.831 752.464 854.103 752.264 853.143 752.264H848.079V757.4ZM857.813 767L864.365 750.2H866.309L872.861 767H870.389L868.781 762.704H861.845L860.237 767H857.813ZM862.589 760.64H868.037L865.349 753.344L862.589 760.64ZM875.051 767V750.2H877.235V757.16H885.659V750.2H887.867V767H885.659V759.2H877.235V767H875.051ZM891.528 767V750.2H893.736V763.28L902.424 750.2H904.56V767H902.304V754.112L893.736 767H891.528ZM919.495 770.912V767H908.239V750.176H910.471V764.936H918.103V750.176H920.311V764.936H921.559V770.912H919.495ZM922.453 767L929.005 750.2H930.949L937.501 767H935.029L933.421 762.704H926.485L924.877 767H922.453ZM927.229 760.64H932.677L929.989 753.344L927.229 760.64Z" fill="#1F1F1F"/>
<path d="M681.2 670V572.2H511.4V532.6L682.4 247.6H729.2V526H790.4V572.2H729.2V670H681.2ZM564.8 526H681.2V332.2L564.8 526ZM950.684 676.6C905.084 676.6 873.484 658.8 855.884 623.2C838.284 587.6 829.484 533.2 829.484 460C829.484 386.8 838.284 332.4 855.884 296.8C873.484 260.8 905.084 242.8 950.684 242.8C995.884 242.8 1027.28 260.8 1044.88 296.8C1062.48 332.4 1071.28 386.8 1071.28 460C1071.28 533.2 1062.48 587.6 1044.88 623.2C1027.28 658.8 995.884 676.6 950.684 676.6ZM950.684 626.8C967.484 626.8 980.884 621.8 990.884 611.8C1001.28 601.4 1008.68 584 1013.08 559.6C1017.88 535.2 1020.28 502 1020.28 460C1020.28 417.6 1017.88 384.2 1013.08 359.8C1008.68 335.4 1001.28 318.2 990.884 308.2C980.884 297.8 967.484 292.6 950.684 292.6C934.284 292.6 920.884 297.8 910.484 308.2C900.084 318.2 892.484 335.4 887.684 359.8C882.884 384.2 880.484 417.6 880.484 460C880.484 502 882.884 535.2 887.684 559.6C892.484 584 900.084 601.4 910.484 611.8C920.884 621.8 934.284 626.8 950.684 626.8ZM1279.44 670V572.2H1109.64V532.6L1280.64 247.6H1327.44V526H1388.64V572.2H1327.44V670H1279.44ZM1163.04 526H1279.44V332.2L1163.04 526Z" fill="#1F1F1F"/>
</g>
<defs>
<clipPath id="clip0_324_5796">
<rect width="945" height="1060" fill="white"/>
</clipPath>
</defs>
</svg>
