<svg width="945" height="1060" viewBox="0 0 945 1060" fill="none" xmlns="http://www.w3.org/2000/svg">
<g clip-path="url(#clip0_324_5799)">
<path d="M-273.8 670V572.2H-443.6V532.6L-272.6 247.6H-225.8V526H-164.6V572.2H-225.8V670H-273.8ZM-390.2 526H-273.8V332.2L-390.2 526ZM-4.31562 676.6C-49.9156 676.6 -81.5156 658.8 -99.1156 623.2C-116.716 587.6 -125.516 533.2 -125.516 460C-125.516 386.8 -116.716 332.4 -99.1156 296.8C-81.5156 260.8 -49.9156 242.8 -4.31562 242.8C40.8844 242.8 72.2844 260.8 89.8844 296.8C107.484 332.4 116.284 386.8 116.284 460C116.284 533.2 107.484 587.6 89.8844 623.2C72.2844 658.8 40.8844 676.6 -4.31562 676.6ZM-4.31562 626.8C12.4844 626.8 25.8844 621.8 35.8844 611.8C46.2844 601.4 53.6844 584 58.0844 559.6C62.8844 535.2 65.2844 502 65.2844 460C65.2844 417.6 62.8844 384.2 58.0844 359.8C53.6844 335.4 46.2844 318.2 35.8844 308.2C25.8844 297.8 12.4844 292.6 -4.31562 292.6C-20.7156 292.6 -34.1156 297.8 -44.5156 308.2C-54.9156 318.2 -62.5156 335.4 -67.3156 359.8C-72.1156 384.2 -74.5156 417.6 -74.5156 460C-74.5156 502 -72.1156 535.2 -67.3156 559.6C-62.5156 584 -54.9156 601.4 -44.5156 611.8C-34.1156 621.8 -20.7156 626.8 -4.31562 626.8ZM324.442 670V572.2H154.642V532.6L325.642 247.6H372.442V526H433.642V572.2H372.442V670H324.442ZM208.042 526H324.442V332.2L208.042 526Z" fill="#1F1F1F"/>
<path d="M14.464 767.312C13.168 767.312 12.008 766.984 10.984 766.328C9.976 765.656 9.264 764.76 8.848 763.64L10.96 762.8C11.232 763.584 11.672 764.184 12.28 764.6C12.904 765.016 13.632 765.224 14.464 765.224C15.088 765.224 15.68 765.136 16.24 764.96C16.8 764.784 17.256 764.48 17.608 764.048C17.96 763.6 18.136 762.984 18.136 762.2C18.136 761.304 17.792 760.592 17.104 760.064C16.432 759.52 15.512 759.248 14.344 759.248H13.072V757.136H14.344C15.352 757.136 16.144 756.912 16.72 756.464C17.312 756 17.608 755.304 17.608 754.376C17.608 753.576 17.312 752.976 16.72 752.576C16.128 752.16 15.376 751.96 14.464 751.976C13.68 751.976 13.016 752.192 12.472 752.624C11.928 753.04 11.48 753.624 11.128 754.376L9.112 753.368C9.608 752.312 10.328 751.464 11.272 750.824C12.216 750.168 13.28 749.84 14.464 749.84C15.488 749.84 16.416 750.016 17.248 750.368C18.08 750.704 18.744 751.2 19.24 751.856C19.752 752.512 20.008 753.328 20.008 754.304C20.008 755.2 19.752 756.008 19.24 756.728C18.744 757.448 18.08 757.92 17.248 758.144C18.192 758.4 18.968 758.912 19.576 759.68C20.2 760.432 20.512 761.32 20.512 762.344C20.512 763.928 19.968 765.152 18.88 766.016C17.808 766.88 16.336 767.312 14.464 767.312ZM21.3282 767L27.8802 750.2H29.8242L36.3762 767H33.9042L32.2962 762.704H25.3602L23.7522 767H21.3282ZM26.1042 760.64H31.5522L28.8642 753.344L26.1042 760.64ZM40.3761 767V752.264H35.0961V750.2H47.8401V752.264H42.5841V767H40.3761ZM50.473 767V750.2H61.345V752.264H52.657V757.376H60.577V759.464H52.657V764.936H61.633V767H50.473ZM64.4652 767V750.2H71.9772C73.5612 750.2 74.7852 750.568 75.6492 751.304C76.5292 752.04 76.9692 753.208 76.9692 754.808C76.9692 756.424 76.5292 757.608 75.6492 758.36C74.7852 759.112 73.5612 759.488 71.9772 759.488H66.6492V767H64.4652ZM66.6492 757.4H71.7132C72.6732 757.4 73.4012 757.2 73.8972 756.8C74.4092 756.384 74.6652 755.72 74.6652 754.808C74.6652 753.912 74.4092 753.264 73.8972 752.864C73.4012 752.464 72.6732 752.264 71.7132 752.264H66.6492V757.4ZM78.4544 767L82.3664 759.392C81.0544 759.264 80.0464 758.824 79.3424 758.072C78.6544 757.32 78.3104 756.24 78.3104 754.832C78.3104 753.216 78.7504 752.04 79.6304 751.304C80.5104 750.568 81.7424 750.2 83.3264 750.2H90.8384V767H88.6304V759.488H84.6704L80.9984 767H78.4544ZM83.5904 757.424H88.6304V752.264H83.5904C82.6144 752.264 81.8784 752.472 81.3824 752.888C80.8864 753.288 80.6384 753.936 80.6384 754.832C80.6384 755.728 80.8864 756.384 81.3824 756.8C81.8784 757.216 82.6144 757.424 83.5904 757.424ZM93.2401 767.024V764.984H93.9601C94.3921 764.984 94.6881 764.928 94.8481 764.816C95.0081 764.704 95.1361 764.448 95.2321 764.048C95.4241 763.36 95.5841 762.472 95.7121 761.384C95.8561 760.28 95.9681 759.04 96.0481 757.664C96.1281 756.288 96.1681 754.84 96.1681 753.32V750.2H106.968V767H104.76V752.264H98.4001V753.32C98.4001 755.864 98.2801 758.16 98.0401 760.208C97.8161 762.24 97.5201 763.88 97.1521 765.128C97.0081 765.672 96.8161 766.08 96.5761 766.352C96.3521 766.624 96.0401 766.808 95.6401 766.904C95.2561 766.984 94.7441 767.024 94.1041 767.024H93.2401ZM109.125 767L115.677 750.2H117.621L124.173 767H121.701L120.093 762.704H113.157L111.549 767H109.125ZM113.901 760.64H119.349L116.661 753.344L113.901 760.64ZM132.549 767.36C131.029 767.36 129.685 767 128.517 766.28C127.349 765.56 126.429 764.544 125.757 763.232C125.101 761.92 124.773 760.376 124.773 758.6C124.773 756.824 125.101 755.28 125.757 753.968C126.429 752.64 127.349 751.616 128.517 750.896C129.685 750.16 131.029 749.792 132.549 749.792C133.925 749.792 135.157 750.096 136.245 750.704C137.333 751.296 138.221 752.136 138.909 753.224L136.965 754.376C136.469 753.608 135.845 753.016 135.093 752.6C134.341 752.184 133.493 751.976 132.549 751.976C131.461 751.976 130.501 752.248 129.669 752.792C128.853 753.336 128.213 754.104 127.749 755.096C127.285 756.072 127.053 757.24 127.053 758.6C127.053 759.944 127.285 761.112 127.749 762.104C128.213 763.08 128.853 763.84 129.669 764.384C130.501 764.928 131.461 765.2 132.549 765.2C133.493 765.2 134.341 764.992 135.093 764.576C135.845 764.16 136.469 763.568 136.965 762.8L138.909 763.952C138.221 765.024 137.333 765.864 136.245 766.472C135.157 767.064 133.925 767.36 132.549 767.36ZM141.739 767V750.2H143.947V757.304H148.699C150.395 757.304 151.691 757.704 152.587 758.504C153.483 759.304 153.931 760.52 153.931 762.152C153.931 763.784 153.483 765 152.587 765.8C151.691 766.6 150.395 767 148.699 767H141.739ZM143.947 764.936H148.435C149.523 764.936 150.315 764.712 150.811 764.264C151.323 763.816 151.579 763.112 151.579 762.152C151.579 761.208 151.299 760.512 150.739 760.064C150.195 759.616 149.427 759.392 148.435 759.392H143.947V764.936ZM163.489 767V750.2H170.137C171.625 750.2 172.785 750.568 173.617 751.304C174.465 752.024 174.889 753.072 174.889 754.448C174.889 755.392 174.673 756.184 174.241 756.824C173.809 757.464 173.241 757.912 172.537 758.168C173.449 758.376 174.193 758.88 174.769 759.68C175.361 760.464 175.657 761.4 175.657 762.488C175.657 763.992 175.209 765.12 174.313 765.872C173.433 766.624 172.145 767 170.449 767H163.489ZM165.673 764.936H170.185C171.273 764.936 172.065 764.72 172.561 764.288C173.057 763.84 173.305 763.152 173.305 762.224C173.305 761.328 173.009 760.632 172.417 760.136C171.825 759.64 171.073 759.392 170.161 759.392H165.673V764.936ZM165.673 757.304H169.897C170.745 757.304 171.393 757.072 171.841 756.608C172.289 756.144 172.513 755.528 172.513 754.76C172.513 753.096 171.593 752.264 169.753 752.264H165.673V757.304ZM189.626 767V752.264H184.346V750.2H197.09V752.264H191.834V767H189.626ZM199.579 767V764.936H202.075C202.411 764.936 202.659 764.896 202.819 764.816C202.995 764.72 203.147 764.536 203.275 764.264C203.291 764.232 203.355 764.088 203.467 763.832C203.579 763.576 203.787 763.128 204.091 762.488L198.451 750.2H200.875L205.219 759.944C205.635 759.016 206.099 757.992 206.611 756.872C207.123 755.736 207.643 754.592 208.171 753.44C208.699 752.272 209.179 751.192 209.611 750.2H212.059C210.667 753.256 209.459 755.896 208.435 758.12C207.427 760.344 206.643 762.072 206.083 763.304C205.523 764.52 205.227 765.16 205.195 765.224C204.875 765.928 204.507 766.4 204.091 766.64C203.691 766.88 203.067 767 202.219 767H199.579ZM214.465 767V750.2H216.649V757.16H225.073V750.2H227.281V767H225.073V759.2H216.649V767H214.465ZM230.942 767V750.2H233.126V757.16H241.55V750.2H243.758V767H241.55V759.2H233.126V767H230.942ZM247.418 767V750.2H258.29V752.264H249.602V757.376H257.522V759.464H249.602V764.936H258.578V767H247.418ZM260.139 767.024V764.984H260.859C261.291 764.984 261.587 764.928 261.747 764.816C261.907 764.704 262.035 764.448 262.131 764.048C262.323 763.36 262.483 762.472 262.611 761.384C262.755 760.28 262.867 759.04 262.947 757.664C263.027 756.288 263.067 754.84 263.067 753.32V750.2H273.867V767H271.659V752.264H265.299V753.32C265.299 755.864 265.179 758.16 264.939 760.208C264.715 762.24 264.419 763.88 264.051 765.128C263.907 765.672 263.715 766.08 263.475 766.352C263.251 766.624 262.939 766.808 262.539 766.904C262.155 766.984 261.643 767.024 261.003 767.024H260.139ZM277.536 767V750.2H288.408V752.264H279.72V757.376H287.64V759.464H279.72V764.936H288.696V767H277.536Z" fill="#1F1F1F"/>
</g>
<defs>
<clipPath id="clip0_324_5799">
<rect width="945" height="1060" fill="white"/>
</clipPath>
</defs>
</svg>
