<svg width="24" height="24" viewBox="0 0 24 24" fill="none" xmlns="http://www.w3.org/2000/svg">
<path d="M20.6796 9.10554H3.32213C2.97087 9.10594 2.62423 9.18572 2.30813 9.33893C1.99203 9.49214 1.71465 9.71481 1.49672 9.9903C1.2797 10.265 1.12805 10.5855 1.05326 10.9276C0.978466 11.2696 0.982497 11.6241 1.06505 11.9644L2.92613 19.5847C3.19559 20.5665 3.78064 21.4324 4.591 22.0487C5.40203 22.6659 6.39501 23.0001 7.41653 23.0001H16.5828C17.6043 23.0001 18.5973 22.6659 19.4084 22.0487C20.2187 21.4324 20.8038 20.5665 21.0732 19.5847L22.9343 11.9656C23.0596 11.4519 23.0046 10.9108 22.7786 10.4328C22.5526 9.95481 22.1693 9.56895 21.6928 9.33981C21.3757 9.1876 21.0289 9.10759 20.6772 9.10554M19.5237 6.00153C19.1143 5.01786 18.5146 4.12478 17.7589 3.37363C16.229 1.85206 14.1586 0.998577 12.0009 1C9.84313 0.998577 7.77271 1.85206 6.24279 3.37363C5.48737 4.12488 4.88785 5.018 4.47867 6.00167" stroke="#F3EBDD" stroke-width="2" stroke-linecap="round" stroke-linejoin="round"/>
</svg>
