<svg width="495" height="700" viewBox="0 0 495 700" fill="none" xmlns="http://www.w3.org/2000/svg">
<g clip-path="url(#clip0_494_7733)">
<rect width="494.655" height="700" fill="#F3EBDD"/>
<path d="M95.2794 616.592C79.4427 598.044 85.0044 580.309 99.9928 568.666C120.354 553.232 132.043 550.525 154.95 554.451C162.397 555.534 211.133 551.608 203.686 575.841C203.403 577.06 203.214 577.601 203.026 578.955C201.989 584.506 197.276 589.65 190.206 590.869C198.972 592.9 204.251 598.721 204.723 606.438C204.911 609.823 205.1 611.447 205.383 614.696C209.813 643.398 160.983 634.462 152.782 634.327C135.343 633.515 110.551 630.536 95.2794 616.592ZM129.498 605.626C139.679 606.979 149.765 607.792 159.946 608.333C159.663 605.355 159.475 603.73 159.286 600.752C149.011 600.075 138.925 599.127 128.65 597.773C128.933 600.887 129.027 602.512 129.498 605.626ZM129.121 579.767C138.359 581.257 147.692 582.34 157.024 583.152C157.307 580.715 157.495 579.497 158.061 577.33C148.823 576.518 139.49 575.164 130.252 573.811C129.687 575.977 129.404 577.195 129.121 579.767Z" fill="#543909"/>
<path d="M221.685 557.834C255.904 558.782 289.934 557.834 324.153 560.542C323.022 568.665 322.268 571.779 321.514 580.849C300.869 580.037 280.225 579.631 259.486 579.631C259.203 581.391 259.109 582.339 259.015 584.234C278.999 584.234 298.89 584.505 318.874 585.046C318.497 593.305 318.591 598.043 318.403 606.978C298.513 607.249 278.528 607.655 258.638 607.655C258.732 609.822 258.732 611.04 258.826 613.206C279.376 613.206 299.832 612.394 320.288 612.123C320.005 622.277 319.251 627.015 318.497 634.326C284.467 636.763 250.908 637.44 216.878 636.357C212.353 609.686 210.939 581.526 221.685 557.834Z" fill="#543909"/>
<path d="M334.625 561.355C368.749 564.333 402.685 566.906 436.904 564.198C438.412 572.05 438.601 575.57 439.072 584.641C418.428 585.318 397.783 584.912 377.139 583.964C377.139 585.589 377.139 586.401 377.045 588.026C396.935 588.973 416.825 589.515 436.81 588.973C437.092 596.961 437.092 601.429 436.244 609.687C416.354 609.687 396.464 609.01 376.573 608.333C376.479 610.228 376.385 611.176 376.196 613.071C396.652 613.748 417.108 614.425 437.658 614.561C436.244 624.038 434.453 628.911 430.777 635.545C396.935 634.462 363.093 632.837 329.252 633.785C333.305 609.958 331.043 585.182 334.625 561.355Z" fill="#543909"/>
<path d="M447.355 563.115C464.417 560.272 479.311 556.075 494.865 545.109C512.21 532.789 520.882 524.802 537.568 544.432C543.035 553.232 547.56 566.77 548.503 578.413C530.875 570.967 512.304 581.663 495.431 588.161C495.525 590.327 495.525 591.41 495.431 593.576C512.021 587.755 529.744 578.549 547.089 582.746C547.466 593.035 546.9 598.315 543.506 607.521C527.01 615.915 508.816 618.352 491.566 621.059C489.68 627.287 488.172 630.536 485.25 635.545C470.733 635.951 456.122 635.951 441.604 635.681C450.843 613.207 452.728 588.432 447.355 563.115Z" fill="#543909"/>
<path d="M93.7524 700.526C81.875 681.979 73.2968 661.807 70.5631 636.626C69.7147 617.401 70.4688 582.337 86.2112 574.214C105.347 568.393 120.524 601.562 119.487 625.389C119.393 627.69 119.393 628.774 119.298 630.94C119.11 640.552 116.376 645.967 112.888 645.155C117.507 651.653 120.43 662.619 120.43 674.397C120.43 679.542 120.43 682.25 120.618 687.53C121.278 703.64 121.655 721.24 106.855 711.086C100.54 707.16 97.9001 704.994 93.7524 700.526ZM89.9818 664.785C94.2238 662.89 96.6747 663.838 101.294 666.139C100.634 660.859 100.351 658.152 99.8797 653.007C94.9779 650.57 92.2442 649.758 87.6252 652.601C88.3793 657.339 88.9449 659.776 89.9818 664.785ZM83.3832 625.389C88.1908 620.515 91.2073 620.921 96.2034 622.817C95.9206 618.484 95.732 616.318 95.5435 612.121C90.3589 610.226 87.2481 609.955 82.252 615.777C82.6291 619.432 82.8176 621.327 83.3832 625.389Z" fill="#C1905A"/>
<path d="M126.559 720.836C124.391 683.74 133.063 637.71 126.37 602.375C142.867 617.403 160.306 630.264 180.102 633.107C194.902 634.596 226.387 624.307 211.116 662.215C208.665 669.254 207.722 671.691 205.271 677.513C199.992 689.562 191.791 698.362 182.647 703.236C179.442 718.669 177.651 726.116 176.143 734.645C166.622 732.885 162.097 731.802 153.708 729.636C154.085 723.137 154.839 718.263 156.253 705.266C154.65 704.86 153.896 704.59 152.294 704.048C148.335 716.368 146.732 720.971 144.752 727.199C136.834 724.762 133.252 723.543 126.559 720.836ZM162.38 674.128C167.753 676.024 170.204 676.701 175.106 677.513C176.426 674.128 176.991 672.504 178.217 668.848C173.221 668.036 170.676 667.495 165.114 665.464C163.983 668.984 163.511 670.744 162.38 674.128Z" fill="#C1905A"/>
<path d="M225.627 623.9C255.038 617.13 284.638 614.423 314.049 622.004C316.689 638.656 307.356 656.256 301.7 669.388C288.126 665.733 274.74 663.296 260.977 661.672C259.375 665.056 258.526 666.545 256.829 669.659C270.027 671.284 282.941 673.721 295.95 677.105C288.22 688.884 280.867 698.225 271.912 708.244C259.469 705.671 247.026 703.505 234.583 701.88C232.226 704.859 231 706.348 228.55 709.462C241.181 711.222 253.813 713.388 266.445 715.69C256.735 725.979 247.591 735.185 236.468 742.36C217.426 740.736 198.384 738.705 179.437 735.185C196.782 715.554 229.304 658.422 225.627 623.9Z" fill="#C1905A"/>
<path d="M319.234 745.205C308.865 745.205 298.496 745.205 288.221 744.934C293.029 743.58 295.668 742.768 301.324 740.737C293.5 740.331 289.352 740.196 281.717 739.654C277.003 741.956 274.741 742.903 270.782 744.528C261.355 744.122 251.929 743.716 242.502 743.039C264.937 730.313 286.807 704.59 303.398 679.95C311.505 666.006 319.329 642.585 330.641 633.514C343.555 623.225 364.388 629.859 377.962 630.942C389.745 631.89 422.173 627.287 431.693 642.856C442.063 659.778 425.095 685.366 415.857 694.707C387.577 720.159 352.51 738.842 319.234 745.205ZM337.616 693.082C333.563 697.956 331.489 700.122 326.87 704.455C336.108 705.673 345.346 706.621 354.584 707.568C360.052 703.507 362.597 701.341 367.404 696.602C357.412 695.519 347.514 694.572 337.616 693.082Z" fill="#C1905A"/>
<path d="M326.961 745.068C354.958 739.247 382.295 726.115 407.935 708.786C425.186 697.143 456.671 666.953 453.843 634.461C462.138 633.784 465.909 633.242 473.356 631.482L473.262 631.347C482.5 629.181 481.84 630.264 497.488 622.547C507.669 617.267 536.043 592.086 545.469 610.904C554.047 627.962 534.44 663.839 527.087 673.857C515.587 689.832 500.504 699.174 486.176 708.38C447.621 732.478 408.69 742.225 366.836 743.985C353.45 744.527 340.158 744.933 326.961 745.068ZM436.404 711.358C446.207 710.41 456.011 707.161 465.626 704.454C471.188 700.934 473.733 699.038 478.635 695.112C468.737 698.361 458.745 702.152 448.564 703.235C444.039 706.62 441.588 708.244 436.404 711.358Z" fill="#C1905A"/>
<path d="M64.3425 568.531C61.1375 572.457 55.5758 578.684 51.051 586.401C41.9071 602.106 41.3415 594.524 43.8867 582.611C45.1122 576.925 45.5835 573.811 46.809 568.125C50.014 554.045 59.4407 543.756 66.982 534.685C71.9781 528.593 76.1258 523.448 76.7857 523.177C72.7322 529.405 72.638 533.873 70.5641 543.349C63.9655 549.171 61.2317 555.128 55.293 563.251C54.8216 565.688 54.6331 566.906 54.1618 569.208C60.1005 561.085 62.74 554.586 69.4329 549.306C67.359 558.377 66.8877 562.574 64.3425 568.531Z" fill="#F39200"/>
<path d="M90.2677 556.752C86.5913 556.752 84.706 556.887 81.2181 557.293C80.2755 563.521 79.8984 566.229 77.636 570.696C71.5087 570.696 68.4922 570.832 64.4387 571.509C71.7915 554.721 71.603 533.466 80.8411 518.303C85.0831 513.7 87.4397 511.398 92.0588 508.149C89.7021 512.752 87.6282 516.001 86.6856 523.177C89.7021 521.687 91.2104 521.417 94.4154 521.011C94.981 513.565 97.2434 510.18 99.3173 505.306C104.125 504.494 106.576 505.171 111.572 506.795C102.617 521.688 106.67 553.367 103.088 571.509C97.4319 571.373 94.0384 571.238 87.534 570.967C89.4193 566.093 89.6078 563.25 90.2677 556.752Z" fill="#F39200"/>
<path d="M114.679 507.744C124.671 512.482 134.287 512.753 144.562 512.753C142.771 517.221 140.131 520.335 140.414 528.051C133.438 528.458 130.045 528.864 122.975 528.051C122.975 529.541 122.975 530.353 122.975 531.842C129.856 532.654 133.061 532.113 139.848 531.842C139.848 538.747 139.094 543.35 138.811 550.119C132.213 550.525 129.196 550.931 121.938 550.66C121.843 552.285 121.843 553.097 121.843 554.587C129.385 554.722 132.496 554.18 139.283 553.774C139.377 561.085 140.602 563.793 138.34 568.937C127.688 570.156 117.13 570.968 106.478 571.374C109.777 553.774 105.724 521.959 114.679 507.744Z" fill="#F39200"/>
<path d="M147.771 512.752C158.234 512.211 168.604 511.534 179.067 510.722C177.371 515.325 174.165 518.439 175.014 526.291C167.755 526.697 163.985 526.832 156.538 527.238C156.632 528.728 156.632 529.405 156.632 530.894C163.89 530.488 167.567 530.488 174.637 530.082C175.014 537.257 174.165 542.131 174.071 549.035C167.001 549.171 163.136 549.035 155.595 549.306C155.501 550.931 155.501 551.607 155.595 553.097C163.513 552.961 167.473 553.097 174.825 552.961C175.391 560.272 177.182 562.844 175.014 568.26C163.796 568.124 152.673 567.718 141.455 568.801C143.058 551.066 139.947 527.509 147.771 512.752Z" fill="#F39200"/>
<path d="M176.9 521.687C179.445 510.044 192.831 508.826 199.713 508.69C205.557 508.69 210.553 509.097 212.91 510.857C209.611 515.324 208.197 517.22 209.234 523.718C201.786 524.124 198.016 524.395 190.569 524.801C190.757 526.29 190.852 527.103 191.04 528.727C195.565 528.727 197.827 528.727 202.352 528.727C208.479 528.727 212.062 532.247 211.213 543.349C210.742 549.441 211.496 551.336 212.344 555.262C213.947 562.302 205.746 567.041 193.868 568.124C187.647 568.665 182.933 567.853 178.974 565.958C180.011 561.49 178.88 559.188 178.503 553.232C186.138 553.096 189.909 552.961 197.544 552.284C197.356 550.93 197.262 550.253 197.262 548.629C193.02 548.764 190.946 548.764 186.704 548.629C180.482 548.493 178.22 544.025 178.126 533.33C178.031 528.456 177.843 526.02 176.9 521.687Z" fill="#F39200"/>
<path d="M217.807 509.638C229.025 510.721 237.509 511.939 248.255 516.813C246.653 518.032 242.034 519.25 243.73 523.989C237.509 521.687 233.644 523.041 226.48 523.447C226.763 524.666 226.857 525.342 227.045 526.696C233.927 526.155 237.603 524.801 243.73 526.155C244.579 530.893 243.353 534.819 243.542 539.152C237.32 540.37 233.738 541.995 226.857 543.619C226.857 544.973 226.951 545.65 227.234 546.868C234.304 544.973 238.074 543.213 244.485 541.182C245.804 545.108 248.727 545.379 246.181 547.951C235.624 555.262 226.763 559.73 215.356 563.656C214.131 548.087 209.606 522.093 217.807 509.638Z" fill="#F39200"/>
<path d="M272.777 556.479C273.531 557.02 273.06 553.23 266.555 551.605C253.264 548.22 245.723 543.617 246.571 532.922C246.948 527.913 247.796 525.07 249.965 519.79C254.584 508.824 264.576 509.907 269.666 508.824C272.023 508.282 276.359 503.544 276.925 505.575C273.908 513.427 272.306 518.707 270.797 528.725C266.555 525.476 262.596 529.673 257.412 527.371C256.94 529.402 256.752 530.35 256.469 532.245C261.842 534.276 266.178 530.35 270.232 535.224C269.572 544.43 269.761 549.168 272.777 556.479Z" fill="#F39200"/>
<path d="M286.164 561.896C284.185 559.73 283.808 559.459 281.168 557.428C281.734 564.739 282.3 568.259 284.75 574.351C280.603 570.154 276.832 567.04 275.701 563.926C267.028 545.108 272.59 519.115 280.226 501.244C283.808 499.755 285.787 500.025 289.652 500.432C287.578 507.201 286.542 511.127 284.75 519.385C287.201 520.333 288.144 520.468 290.312 521.551C292.103 512.887 293.234 508.555 295.308 501.244C298.985 502.056 300.87 502.598 304.546 503.681C298.796 527.238 292.386 557.97 298.608 582.745C294.931 583.963 291.82 584.234 288.898 579.766C286.919 573.403 286.447 569.748 286.164 561.896Z" fill="#F39200"/>
<path d="M306.902 504.628C315.48 507.336 319.628 509.096 328.112 512.616C326.603 517.625 325.661 520.874 324.153 527.372C318.874 526.966 316.423 527.237 311.332 527.508C311.05 529.132 310.861 529.945 310.578 531.569C315.48 530.892 317.837 530.351 322.927 530.486C321.702 536.172 321.136 539.286 320.476 545.108C315.292 546.461 313.029 548.086 308.127 550.523C308.033 552.283 307.939 553.095 307.844 554.855C312.746 551.877 315.197 549.981 320.476 548.357C319.911 554.991 319.816 558.24 320.665 563.655C312.086 568.935 309.164 577.464 300.869 582.203C295.119 557.698 301.34 527.779 306.902 504.628Z" fill="#F39200"/>
<path d="M330.367 513.428C338.851 516.948 343.093 518.843 351.859 521.28C351.577 525.477 351.294 528.049 350.728 533.329C345.072 532.111 342.244 531.299 336.683 529.674C336.494 530.757 336.4 531.299 336.211 532.382C341.679 533.871 344.412 534.548 349.974 535.766C349.503 540.505 349.314 542.942 348.937 547.815C343.093 546.868 340.17 546.191 334.42 545.108C334.326 546.326 334.232 546.868 334.137 548.086C340.17 549.169 343.187 549.846 349.314 550.794C349.031 556.345 348.937 559.188 349.126 563.926C338.756 562.301 332.346 558.511 323.297 562.301C321.694 545.514 325.748 528.591 330.367 513.428Z" fill="#F39200"/>
<path d="M353.003 530.757C353.568 523.581 357.716 522.092 366.2 523.717C370.348 524.529 373.741 525.883 376.475 527.914C377.135 531.569 377.323 533.6 377.7 537.932C371.856 536.714 368.934 536.307 362.995 535.224C362.995 536.307 362.995 536.714 362.995 537.797C366.577 538.609 368.368 538.88 371.95 539.692C376.852 540.775 379.397 543.753 379.586 550.252C379.68 553.907 379.586 555.803 379.491 559.323C379.209 565.821 373.741 568.123 364.315 566.633C359.318 565.821 355.171 564.332 351.683 562.03C351.777 557.969 351.871 555.667 352.248 551.2C358.564 552.147 361.675 552.553 367.991 553.501C367.991 552.418 367.991 551.876 368.085 550.929C364.597 550.252 362.901 549.981 359.413 549.304C354.322 548.357 351.966 545.107 352.531 538.338C352.626 535.36 352.72 533.735 353.003 530.757Z" fill="#F39200"/>
<path d="M379.016 527.507C387.594 530.215 392.119 532.11 398.906 540.504C401.357 543.753 402.394 545.513 404.185 549.439C399.283 545.784 396.55 544.43 391.176 542.264C391.365 543.212 391.459 543.618 391.648 544.566C397.021 546.461 399.66 547.679 404.562 550.929C405.882 554.313 406.448 556.209 407.013 559.999C401.546 557.833 398.718 556.886 392.968 555.396C393.062 556.479 393.062 556.886 393.062 557.969C399.001 559.322 402.017 560.135 407.767 562.301C408.239 566.633 408.239 568.935 407.485 573.402C397.115 571.642 391.931 570.83 381.561 569.205C382.787 556.073 382.127 539.963 379.016 527.507Z" fill="#F39200"/>
<path d="M423.612 565.552C422.198 567.582 417.579 567.853 412.018 561.355C400.894 548.222 405.23 548.764 401.083 544.026C399.103 541.859 398.255 540.506 397.878 537.392C397.029 530.893 405.702 524.26 416.731 522.229C421.727 521.281 423.518 522.5 424.272 524.801C420.596 532.112 419.653 537.121 419.747 544.973C413.055 544.296 409.095 542.672 404.476 540.912C404.571 542.401 404.571 543.078 404.853 544.432C408.907 547.139 413.432 549.035 420.313 549.982C421.067 556.887 422.481 560.136 423.612 565.552Z" fill="#F39200"/>
<path d="M441.903 560.001C439.169 560.271 437.755 560.407 435.116 560.407C436.247 564.874 437.001 567.176 436.907 570.425C432.476 570.56 430.308 570.425 426.161 569.342C421.636 550.118 421.164 539.693 428.046 521.552C431.911 521.416 433.796 521.416 437.661 521.416C435.399 526.29 434.267 529.269 433.325 535.361C435.87 535.361 437.19 535.225 439.735 535.225C440.489 529.269 441.62 526.155 443.506 521.416C447.37 521.416 449.256 521.281 453.121 520.875C447.37 537.527 452.178 552.013 455.006 568.394C450.387 569.071 448.125 569.477 443.6 569.884C443.977 566.77 443.128 564.333 441.903 560.001Z" fill="#F39200"/>
<path d="M455.662 520.605C464.617 519.251 468.859 516.814 477.437 512.482C477.626 517.898 476.966 521.824 477.532 528.728C471.97 531.165 469.142 532.519 463.486 534.008C463.486 535.227 463.486 535.904 463.58 537.122C469.142 535.768 471.876 534.55 477.343 532.248C478.003 538.07 478.663 540.913 480.171 546.463C474.515 548.765 471.687 549.848 465.843 550.796C466.125 552.014 466.314 552.556 466.597 553.774C472.63 552.826 475.552 551.743 481.491 549.442C483.376 555.67 485.356 559.189 484.319 563.928C476.023 567.448 466.691 567.583 458.113 568.26C455.285 551.608 450.289 537.528 455.662 520.605Z" fill="#F39200"/>
<path d="M479.697 511.533C488.276 507.472 492.612 505.712 501.567 503.41C503.358 508.69 503.17 512.752 504.489 519.656C498.739 520.604 495.911 521.552 490.255 523.582C490.444 524.801 490.538 525.478 490.727 526.696C496.194 524.665 499.022 523.853 504.584 522.905C505.809 528.727 506.658 531.705 508.543 537.256C502.698 537.933 499.87 538.745 494.12 540.776C494.497 541.994 494.686 542.671 495.063 543.89C501.002 541.859 504.018 540.911 510.051 540.37C512.219 546.868 514.576 550.794 512.973 555.668C502.51 555.668 497.419 558.647 487.144 562.573C484.694 544.837 478.755 530.351 479.697 511.533Z" fill="#F39200"/>
<path d="M79.2478 495.152C76.4198 493.256 75.0058 492.309 72.3663 490.007C70.9523 484.456 70.5753 481.207 70.2925 473.219C79.8134 479.176 88.8629 484.456 98.7609 488.924C97.724 495.558 97.5355 498.401 97.2527 503.139C93.9533 502.462 92.3508 501.785 89.24 500.567C89.4285 506.253 89.8056 508.419 90.7483 511.804C87.1662 510.721 85.5636 509.908 82.5471 507.742C80.8503 503.816 80.0962 501.379 79.2478 495.152Z" fill="#BE1622"/>
<path d="M99.5144 500.566C100.08 494.474 105.736 489.329 114.126 472.948C122.515 456.566 125.343 462.659 126.475 476.739C127.04 483.372 127.323 486.622 127.889 492.714C129.208 505.575 128.077 513.021 114.691 513.563C101.305 514.104 99.1374 511.668 99.2316 506.929C99.2316 504.763 99.2316 503.409 99.5144 500.566ZM109.035 501.108C112.712 498.4 114.597 496.911 118.368 494.203C118.273 492.714 118.273 491.902 118.179 490.277C114.503 493.526 112.712 495.151 109.035 498.4C109.035 499.618 109.035 500.16 109.035 501.108Z" fill="#BE1622"/>
<path d="M144.857 501.65C142.783 496.776 141.746 494.339 139.672 489.736C140.709 499.213 141.275 503.816 142.218 512.345C138.164 512.48 136.185 512.616 132.131 512.751C129.68 491.767 127.795 470.918 126.569 449.663C129.303 444.518 130.34 441.133 133.828 438.02C136.75 444.112 138.824 448.444 141.935 457.921C143.632 451.829 144.103 450.204 145.234 446.143C147.968 450.881 149.759 452.641 153.624 455.213C156.546 474.167 159.94 492.985 163.145 511.804C159.091 511.939 157.112 512.074 153.058 512.074C152.021 504.357 151.456 500.161 150.324 491.361C149.476 495.422 149.099 497.453 148.062 502.056C146.742 501.785 146.177 501.65 144.857 501.65Z" fill="#BE1622"/>
<path d="M191.613 509.909C187.56 510.179 185.58 510.315 181.527 510.586C181.432 508.961 181.338 508.149 181.149 506.389C178.699 506.524 177.473 506.524 175.022 506.66C175.305 508.42 175.399 509.367 175.588 510.992C171.534 511.263 169.555 511.398 165.501 511.533C163.71 500.297 162.296 493.527 159.751 479.041C157.017 463.201 160.034 458.869 171.251 460.494C182.563 462.254 187.937 468.481 189.445 482.02C190.859 494.61 191.613 500.567 191.613 509.909ZM171.44 483.78C171.817 485.946 172.006 487.029 172.288 489.195C174.928 489.33 176.248 489.466 178.887 489.466C178.604 487.435 178.416 486.352 178.133 484.186C175.493 484.186 174.174 484.05 171.44 483.78Z" fill="#BE1622"/>
<path d="M200.758 486.893C197.364 487.028 195.667 487.028 192.274 487.028C191.425 477.958 190.765 473.084 189.729 463.065C200.004 463.472 210.184 463.742 220.365 463.607C220.648 472.813 220.836 477.416 220.648 486.081C217.254 486.351 215.558 486.487 212.164 486.622C212.352 496.37 212.258 500.973 211.033 508.284C206.979 508.69 205 508.825 200.946 509.231C201.606 501.514 201.418 496.776 200.758 486.893Z" fill="#BE1622"/>
<path d="M222.908 480.8C223.002 470.375 226.773 462.929 240.913 461.575C255.053 460.222 258.541 465.502 256.655 474.301C255.807 478.498 255.241 480.529 254.016 484.32C251.282 492.307 247.323 501.649 234.974 505.304C222.625 508.96 221.777 502.461 222.437 492.849C222.719 488.111 222.814 485.809 222.908 480.8ZM233.56 487.975C238.085 487.434 240.347 487.028 244.778 485.674C244.966 484.32 245.155 483.508 245.343 482.154C240.819 483.372 238.556 483.643 233.937 484.32C233.843 485.674 233.749 486.486 233.56 487.975Z" fill="#BE1622"/>
<path d="M271.734 473.897C267.115 473.355 264.287 473.22 260.611 473.084C259.48 465.368 260.422 461.983 265.419 457.921C276.919 451.965 290.116 452.641 302.182 452.777C298.789 459.952 298.318 465.368 299.449 477.281C294.83 476.334 292.473 476.063 287.665 475.521C288.985 487.841 292.096 497.183 296.338 506.253C290.399 504.223 287.194 503.41 281.538 500.703C276.165 492.986 272.866 484.727 271.734 473.897Z" fill="#BE1622"/>
<path d="M301.897 471.189C302.18 453.59 319.336 452.913 327.915 454.537C338.944 456.703 349.502 462.931 351.293 480.531C352.141 487.706 352.707 491.632 354.121 500.026C359.117 523.312 343.94 526.155 331.685 522.229C318.677 518.167 307.647 507.743 303.688 488.519C302.274 481.072 301.897 477.552 301.897 471.189ZM318.3 486.623C325.087 488.112 328.669 488.925 335.833 490.143C335.55 487.571 335.362 486.352 335.173 484.051C328.103 482.697 324.521 482.155 317.734 480.666C317.922 483.103 318.017 484.186 318.3 486.623Z" fill="#BE1622"/>
<path d="M382.223 520.061C379.96 515.322 378.169 512.073 374.964 506.522C376.661 516.27 377.227 522.227 376.944 528.454C371.194 528.048 367.894 527.778 361.107 527.101C360.07 505.033 353.189 483.913 353.66 461.575C359.128 463.47 361.861 464.553 367.046 466.99C370.817 471.999 373.079 474.978 377.604 481.341C380.149 477.821 381.374 476.603 384.202 476.603C389.01 479.852 391.367 482.153 396.551 484.59C402.584 496.91 406.826 514.781 403.527 529.673C396.363 529.537 394.006 529.267 390.141 529.131C391.367 523.851 391.178 518.03 389.764 508.959C388.633 513.427 388.256 516.27 386.371 520.602C384.768 520.331 383.92 520.196 382.223 520.061Z" fill="#BE1622"/>
<path d="M442.729 523.988C438.204 525.341 435.848 526.018 430.851 527.102C431.606 525.477 431.888 524.529 432.36 521.957C429.343 522.905 427.835 523.446 424.536 524.258C424.064 526.425 423.781 527.237 423.122 528.455C417.56 529.268 414.543 529.538 407.756 529.674C411.433 522.498 408.51 508.689 404.928 497.182C401.063 484.591 407.002 490.683 415.486 475.114C422.933 461.44 435.848 463.877 440.844 479.447C444.049 493.256 448.951 509.908 442.729 523.988ZM420.482 495.286C421.236 497.588 421.519 498.671 422.179 501.243C425.29 499.213 426.704 497.859 429.72 495.828C428.966 492.985 428.589 491.631 427.741 489.059C424.818 491.496 423.593 492.985 420.482 495.286Z" fill="#BE1622"/>
<path d="M456.12 484.05C451.878 484.592 449.71 484.862 445.468 485.675C442.263 472.542 439.435 466.586 434.91 461.983C447.448 461.035 460.174 462.118 472.523 465.232C477.142 466.586 479.781 471.459 481.572 482.561C477.142 482.561 474.879 482.561 470.543 482.832C472.805 493.798 471.769 510.314 464.321 516.948C459.702 518.437 457.44 519.114 453.104 520.739C459.514 511.804 458.76 494.745 456.12 484.05Z" fill="#BE1622"/>
<path d="M482.987 476.738C479.687 465.636 480.63 467.532 496.655 474.03C507.213 478.362 512.398 448.578 524.087 466.719C527.575 472.405 528.894 476.061 529.743 483.507C532.571 510.042 509.193 509.771 497.315 510.584C482.044 511.531 483.552 511.802 484.778 492.307C485.155 485.267 484.589 481.882 482.987 476.738ZM500.143 487.298C506.742 487.839 511.738 492.578 517.3 488.516C517.017 486.891 516.923 486.079 516.451 484.725C511.361 489.464 506.176 483.778 499.578 483.101C499.86 484.59 499.955 485.538 500.143 487.298Z" fill="#BE1622"/>
<path d="M269.291 371.412C270.988 369.787 272.119 369.652 274.476 369.787C269.857 377.369 272.59 388.876 278.058 400.384C280.132 401.602 281.357 402.415 283.62 403.633C287.862 414.599 290.218 418.931 292.386 430.845C288.804 427.596 287.673 424.888 285.693 419.473C279.189 405.799 263.07 390.23 269.291 371.412Z" fill="#006633"/>
<path d="M281.83 371.683C286.92 373.713 289.654 374.932 294.933 377.233C293.33 382.649 293.99 389.282 295.215 396.999C291.822 395.646 290.219 394.969 286.826 393.615C287.109 394.969 287.203 395.781 287.486 397.135C290.691 398.489 292.293 399.165 295.498 400.384C296.818 407.018 297.949 410.267 299.929 416.63C297.007 415.141 295.498 414.464 292.482 412.975C293.047 414.464 293.236 415.141 293.801 416.63C296.818 418.255 298.326 418.931 301.248 420.556C303.417 428.002 303.794 431.251 304.359 439.104C299.835 436.261 297.478 435.177 293.236 431.793C290.125 412.704 275.42 392.396 281.83 371.683Z" fill="#006633"/>
<path d="M303.043 409.455C301.252 408.643 300.403 408.237 298.612 407.56C295.502 395.917 293.805 386.034 296.067 377.64C301.723 380.077 304.645 381.296 310.301 383.597C309.359 392.532 311.15 401.874 313.412 414.058C311.621 413.246 310.773 412.84 308.982 412.163C311.81 425.701 313.789 431.794 313.883 445.061C311.904 443.843 310.961 443.166 309.076 441.947C308.51 428.68 306.248 422.858 303.043 409.455Z" fill="#006633"/>
<path d="M318.878 416.493C317.087 415.681 316.239 415.275 314.448 414.598C312.185 402.278 310.488 393.072 311.337 384.001C316.993 386.438 319.915 387.657 325.571 389.958C326.042 399.706 327.833 408.37 329.153 421.097C327.362 420.284 326.514 419.878 324.817 419.066C326.702 433.281 328.022 440.05 326.608 453.047C324.723 451.829 323.78 451.152 321.895 449.933C322.743 437.072 321.14 430.438 318.878 416.493Z" fill="#006633"/>
<path d="M345.457 441.541C345.457 461.307 340.743 465.91 336.69 462.119C332.637 458.328 333.202 450.882 331.505 432.47C330.091 418.525 328.96 404.31 326.698 390.501C328.96 391.449 330.186 391.99 332.448 392.938C333.673 404.31 335.37 413.922 336.501 428.544C337.821 429.221 338.481 429.627 339.801 430.439C338.952 415.547 337.256 405.935 335.747 394.292C338.01 395.239 339.141 395.781 341.403 396.999C345.457 411.079 345.174 426.784 345.457 441.541Z" fill="#006633"/>
<path d="M355.727 473.627C353.559 477.554 350.448 478.23 348.374 475.793C344.132 470.649 346.3 458.735 346.489 442.489C346.583 434.772 346.395 430.846 346.3 422.859C346.112 406.071 344.603 397.542 349.882 402.28C352.239 404.446 354.878 408.643 356.67 412.84C359.498 422.452 360.346 428.815 359.78 440.458C356.481 437.886 354.878 436.262 351.485 433.554C351.485 436.532 351.391 438.022 351.391 441C354.596 443.843 356.198 445.468 359.498 448.04C358.932 458.6 358.555 464.015 355.727 473.627Z" fill="#006633"/>
<path d="M356.579 409.86C360.821 415.005 362.801 417.848 366.666 423.805C370.06 429.22 372.982 431.386 373.359 438.562C370.719 437.208 369.305 436.396 366.477 434.365C366.477 435.989 366.477 436.802 366.477 438.426C369.211 440.186 370.531 440.728 373.076 441.811C372.793 448.174 372.51 451.288 371.568 457.38C369.117 457.921 367.891 457.921 365.158 457.109C364.969 458.869 364.875 459.681 364.592 461.306C367.326 461.848 368.74 461.712 371.096 460.765C369.683 467.669 368.551 471.46 365.158 476.469C361.387 481.343 358.653 482.291 354.506 480.26C361.293 456.297 363.461 433.823 356.579 409.86Z" fill="#006633"/>
<path d="M80.0962 417.714C82.1701 415.683 83.207 414.6 85.4694 412.84C76.9854 422.317 74.4402 435.314 71.8008 449.394C75.0058 447.092 76.8912 445.739 80.379 443.302C78.6822 457.381 78.965 462.255 70.7638 473.492C62.5627 479.449 57.001 485.27 53.7959 485.27C65.5792 464.692 64.2595 433.825 80.0962 417.714Z" fill="#006633"/>
<path d="M92.6333 407.291C98.1008 403.365 100.74 401.47 106.208 397.814C103.38 406.208 101.871 410.947 99.9861 421.913C96.5925 421.236 95.1785 420.153 91.7849 421.507C91.4079 423.131 91.3136 423.943 91.0308 425.703C94.4244 424.485 95.6499 425.839 98.9492 427.057C97.5352 436.94 97.4409 442.491 96.2155 451.291C93.1989 447.906 92.162 445.063 88.8627 445.605C88.6742 447.229 88.4856 448.042 88.2028 449.666C91.5021 449.125 92.5391 452.645 95.5556 456.706C93.7645 466.86 92.7276 471.192 87.6372 480.534C82.7354 469.026 81.9812 465.777 72.8374 472.005C82.4526 452.509 80.473 423.943 92.6333 407.291Z" fill="#006633"/>
<path d="M103.75 441.137C101.865 440.054 101.016 439.377 99.2253 438.159C101.016 423.808 102.902 410.27 107.332 397.002C113.082 393.076 116.005 391.181 121.755 387.119C119.587 405.261 117.89 423.402 116.665 441.679C114.496 443.303 113.177 443.439 110.82 443.439C108.935 464.288 106.295 481.888 100.168 501.112C96.4916 499.487 95.0776 496.915 92.7209 492.177C99.6967 476.878 102.336 458.872 103.75 441.137Z" fill="#006633"/>
<path d="M121.761 434.775C120.441 437.347 119.781 438.701 117.802 440.731C119.027 422.59 120.63 404.584 122.704 386.443C128.454 382.246 131.282 380.08 137.126 376.424C135.053 391.046 132.413 405.532 130.056 420.153C128.548 422.59 127.794 423.809 126.38 426.245C124.306 443.71 120.253 460.768 113.183 475.254C112.146 480.805 111.769 483.648 111.015 489.334C117.708 472.276 119.876 453.864 121.761 434.775Z" fill="#006633"/>
<path d="M141.18 408.645C134.204 421.372 124.872 430.848 120.253 445.741C116.388 458.06 121.855 456.842 127.982 432.879C131.942 413.925 135.429 394.836 138.257 375.612C140.614 374.123 141.84 373.446 144.196 372.092C141.934 386.713 138.54 401.064 135.241 415.279C136.466 413.249 137.126 412.301 138.446 410.405C141.934 397.273 145.516 384.006 147.684 370.197C150.135 368.978 151.266 368.437 153.717 367.354C151.266 382.381 146.553 395.243 141.18 408.645Z" fill="#006633"/>
<path d="M151.733 403.23C147.114 405.396 140.232 407.021 135.613 410.541C126.186 417.58 135.33 419.747 142.306 406.75C145.605 400.657 146.925 396.596 149.282 389.285C154.278 373.716 157.2 364.781 163.893 363.292C166.909 362.615 169.926 363.427 171.246 365.458C171.151 372.227 169.832 377.101 166.438 385.224C160.971 385.901 158.048 386.171 153.429 389.421C152.392 391.722 151.827 392.941 150.696 394.971C155.409 391.181 158.52 390.91 164.176 390.098C160.405 396.867 157.671 399.439 151.733 403.23Z" fill="#006633"/>
<path d="M172.566 362.75C178.599 362.479 182.37 361.531 186.8 367.082C189.44 371.008 189.817 373.987 189.251 379.537C185.481 377.642 183.218 377.371 178.882 377.236C178.599 378.454 178.505 378.996 178.128 380.214C182.464 380.214 184.726 380.485 188.497 381.974C187.554 386.713 186.612 389.014 184.067 392.263C179.636 392.128 177.279 391.993 172.566 392.534C171.906 393.482 171.435 394.023 170.681 394.836C175.677 394.294 178.222 394.294 182.841 394.159C179.353 397.679 177.279 398.626 173.132 399.98C163.894 402.959 159.086 403.365 149.754 405.396C162.103 396.054 173.037 385.359 172.566 362.75Z" fill="#006633"/>
<path d="M35.0392 390.907C37.7729 391.584 39.2812 391.584 42.1092 391.043C41.4493 400.113 40.2238 407.695 39.7525 420.421C42.4862 420.827 43.806 420.827 45.22 419.609C45.5028 432.335 43.806 438.156 49.5562 447.091C43.5232 445.061 40.2238 443.571 37.3016 440.728C30.7029 426.242 33.908 406.747 35.0392 390.907Z" fill="#3AAA35"/>
<path d="M45.3079 384.004C45.1194 375.339 48.0416 370.601 53.6976 365.862C54.9231 375.204 55.3001 380.619 56.3371 391.45C53.3205 393.616 51.6237 394.834 49.1728 397.813C49.3614 399.573 49.3613 400.52 49.5499 402.416C52.0008 399.844 53.6976 398.76 56.5256 396.73C57.374 406.071 57.8453 410.945 59.165 420.151C56.6199 421.64 54.9231 422.182 51.9065 423.536C52.1893 425.431 52.2836 426.379 52.6607 428.274C55.8657 427.191 57.6568 426.649 60.202 425.296C61.8988 435.72 61.8988 440.323 66.1408 449.123C62.5586 450.342 58.3167 449.665 51.2467 447.499C44.0824 428.409 45.9678 404.988 45.3079 384.004Z" fill="#3AAA35"/>
<path d="M62.5631 402.009C60.8663 403.498 60.2064 404.311 58.6981 405.258C57.4727 391.855 56.4358 378.317 54.9275 364.914C61.1491 360.311 64.7312 357.333 71.6126 358.28C72.2725 371.413 72.1782 379.4 72.7438 394.563C70.9528 395.375 70.1044 395.917 68.3133 397.271C69.3502 411.215 70.1044 425.566 73.7808 438.698C71.9897 441.406 71.1413 442.76 69.3502 445.603C65.014 431.794 63.8828 416.766 62.5631 402.009Z" fill="#3AAA35"/>
<path d="M78.12 392.668C76.4232 393.21 75.4805 393.345 73.7837 394.022C73.3124 379.13 73.4067 371.277 72.8411 358.416C79.7225 360.041 83.0218 362.478 90.0918 362.884C89.6205 372.09 89.0549 377.776 88.4893 388.336C86.6982 389.283 85.8498 389.69 84.0588 390.502C83.776 403.634 82.4562 409.997 85.6613 420.557C83.8702 423.265 82.9276 424.619 81.1365 427.326C77.0831 415.142 78.4028 407.831 78.12 392.668Z" fill="#3AAA35"/>
<path d="M103.854 385.357C101.497 394.698 99.8006 399.437 95.7471 405.8C91.6937 412.163 88.7714 410.944 89.2428 396.188C89.7141 382.785 90.751 374.662 91.4109 362.883C94.2389 363.019 95.6529 363.019 98.5751 363.019C97.4439 371.683 96.5013 377.234 95.3701 387.117C96.7841 386.305 97.4439 385.898 98.8579 385.086C100.272 376.015 101.309 371.006 102.723 363.154C105.551 363.289 106.965 363.425 109.887 363.696C107.625 371.548 106.022 376.828 103.854 385.357Z" fill="#3AAA35"/>
<path d="M118.093 383.462C116.113 384.815 112.814 386.169 109.703 388.2C103.576 392.397 102.916 391.855 104.99 384.545C105.933 381.025 106.498 379.265 107.629 375.609C109.986 368.028 113.851 363.56 121.581 364.779C125.069 365.32 127.897 366.539 128.651 367.757C126.671 370.6 125.634 372.225 123.655 375.339C119.318 375.339 117.056 375.474 112.908 376.557C112.437 377.64 112.248 378.182 111.777 379.265C115.925 377.776 118.093 377.505 122.523 377.234C120.638 380.077 119.695 381.431 118.093 383.462Z" fill="#3AAA35"/>
<path d="M131.094 366.945C137.693 368.299 140.992 369.111 147.591 371.007C145.894 372.361 145.046 373.038 143.255 374.391C139.484 374.121 137.599 373.85 133.828 373.444C133.545 373.85 133.357 373.985 133.074 374.391C136.656 374.662 138.447 374.933 142.029 375.068C140.521 376.151 139.767 376.693 138.259 377.776C134.771 378.318 132.98 378.318 129.398 378.453C129.021 378.859 128.926 378.994 128.549 379.401C132.226 379.13 134.017 378.994 137.599 378.318C135.808 379.401 134.865 379.942 132.98 380.754C127.135 383.191 124.119 383.056 118.18 384.681C122.139 379.13 125.91 373.85 131.094 366.945Z" fill="#3AAA35"/>
<path d="M154.93 398.354C157.192 395.105 158.135 393.616 160.209 390.637C154.93 402.822 151.159 409.997 150.688 423.942C153.704 423.535 155.213 423.265 158.606 423.265C158.229 435.314 163.131 449.258 168.41 458.058C162.094 454.674 158.606 452.643 153.233 447.498C139.659 427.597 143.147 418.391 154.93 398.354Z" fill="#3AAA35"/>
<path d="M167.753 383.326C174.54 380.483 178.405 382.65 185.57 382.785C183.873 392.262 182.742 397.406 181.422 407.831C176.803 407.425 174.54 407.154 170.11 406.748C169.827 408.643 169.733 409.591 169.45 411.351C173.786 411.892 175.954 412.163 180.385 412.569C179.442 421.505 179.254 426.108 180.008 435.314C175.483 434.637 173.221 434.231 168.979 433.283C169.167 435.314 169.356 436.397 169.638 438.428C173.975 439.511 176.331 440.052 181.045 440.729C182.553 451.424 184.438 456.569 187.738 465.91C180.291 464.015 177.274 462.797 170.016 459.141C158.421 432.471 159.081 412.028 167.753 383.326Z" fill="#3AAA35"/>
<path d="M188.393 422.318C185.848 422.182 184.528 422.047 181.983 421.776C182.454 408.779 184.717 395.241 187.073 382.786C194.709 382.921 198.48 383.056 206.115 383.192C204.984 396.324 203.758 409.727 203.664 422.995C201.025 422.995 199.799 422.995 197.16 422.859C197.82 440.053 199.705 452.102 203.57 468.348C200.271 468.077 198.668 467.942 195.369 467.4C190.938 450.884 188.959 439.917 188.393 422.318Z" fill="#3AAA35"/>
<path d="M211.678 422.859C209.039 422.859 207.814 422.994 205.174 422.994C205.268 409.727 206.4 396.324 207.436 383.191C215.072 383.327 218.843 383.327 226.478 383.462C226.667 396.324 226.573 409.185 226.855 422.046C224.31 422.182 222.99 422.317 220.351 422.453C221.105 438.292 222.802 452.102 225.253 467.671C221.953 468.077 220.351 468.212 217.052 468.348C214.129 452.508 212.338 439.24 211.678 422.859Z" fill="#3AAA35"/>
<path d="M251.268 429.222C252.493 440.73 251.55 461.714 243.444 464.557C233.923 467.942 231.095 447.634 229.304 435.45C228.172 418.121 228.361 400.791 227.984 383.462C231.095 383.462 232.603 383.598 235.619 383.598C236.562 397.542 236.845 411.622 237.505 425.702C239.579 425.296 240.521 425.161 242.501 424.484C241.841 410.81 241.37 397.136 240.144 383.598C243.255 383.598 244.669 383.598 247.78 383.733C249.759 398.761 250.419 414.059 251.268 429.222Z" fill="#3AAA35"/>
<path d="M273.796 437.48C271.911 441.677 267.763 445.467 263.898 448.175C256.074 453.455 253.812 445.332 252.869 428.409C252.398 420.422 252.209 416.36 251.738 408.643C250.701 392.262 251.738 382.514 259.939 383.868C263.615 384.545 267.386 386.982 269.554 389.825C271.628 397.406 272.382 401.874 273.325 410.809C267.952 410.945 265.312 411.351 260.033 412.705C260.222 415.412 260.316 416.766 260.41 419.474C265.689 417.714 268.423 417.172 273.89 416.766C274.456 425.16 274.645 429.492 273.796 437.48Z" fill="#3AAA35"/>
<path d="M270.131 387.252C276.824 389.824 280.311 391.584 285.779 398.353C288.795 402.28 290.115 404.716 292.095 409.861C288.23 407.018 286.062 406.07 281.82 404.716C282.102 405.799 282.197 406.476 282.48 407.559C286.627 408.778 288.795 409.59 292.66 412.027C294.169 416.63 294.64 419.067 295.017 423.805C290.775 422.181 288.607 421.639 284.176 421.233C284.271 422.587 284.271 423.129 284.271 424.482C288.795 424.753 291.152 425.159 295.488 426.649C295.583 432.199 295.205 435.042 293.414 440.187C285.873 439.239 282.008 439.645 274.75 442.218C277.389 423.941 275.598 404.04 270.131 387.252Z" fill="#3AAA35"/>
<path d="M358.925 410.944C361.847 407.559 363.733 406.206 367.409 405.664C361.565 420.285 358.831 431.252 360.151 448.445C366.844 447.362 373.442 448.445 379.852 451.559C382.397 449.258 383.434 448.039 386.262 445.602C400.968 453.861 404.079 471.596 404.833 491.768C403.042 499.62 405.021 507.202 399.554 509.639C396.066 484.186 388.902 463.608 369.766 456.704C362.413 453.996 357.04 457.787 352.798 449.664C346.953 438.562 355.532 419.609 358.925 410.944Z" fill="#3AAA35"/>
<path d="M379 402.957C388.049 399.979 392.48 399.031 401.247 397.677C394.177 407.425 394.554 416.766 393.988 431.388C388.332 433.012 385.504 434.095 380.131 436.532C380.037 439.375 381.922 437.074 383.619 436.803C388.615 434.502 391.254 433.554 396.533 432.065C403.603 431.523 407.374 433.689 412.276 440.458C407.751 441.812 405.489 442.76 401.529 445.061C402.849 446.686 403.509 447.634 404.64 449.664C408.505 447.092 410.673 446.145 415.198 444.655C419.723 454.132 420.477 461.307 417.649 474.44C411.05 478.501 407.94 481.344 405.206 489.873C403.603 460.224 393.328 438.834 370.704 440.729C370.044 426.514 372.778 414.059 379 402.957Z" fill="#3AAA35"/>
<path d="M413.226 430.982C410.303 431.388 408.889 431.659 406.061 432.471C386.737 439.511 400.311 405.665 403.139 397.407C412.472 396.053 416.996 395.782 426.234 395.511C423.972 404.717 415.205 431.659 430.382 429.492C427.46 429.628 425.952 429.628 423.029 429.899C433.776 436.668 436.698 454.403 432.267 469.024C429.157 469.701 427.648 469.972 424.632 471.055C428.874 455.215 424.915 436.803 413.226 430.982Z" fill="#3AAA35"/>
<path d="M439.524 429.356C436.601 429.356 435.093 429.356 432.171 429.356C417.277 431.252 425.666 404.716 427.835 395.375C436.978 395.24 441.598 395.375 450.836 395.781C448.95 405.935 446.311 427.732 456.869 430.304C453.946 430.033 452.438 429.898 449.516 429.627C459.508 439.375 456.209 454.402 453.287 467.399C450.081 467.264 448.573 467.128 445.368 467.264C447.725 453.861 450.553 437.885 439.524 429.356Z" fill="#3AAA35"/>
<path d="M487.316 445.196C488.73 458.869 479.68 473.491 470.254 471.46C463.184 469.971 468.651 458.057 463.372 439.78C461.11 432.47 457.434 427.596 452.249 425.023C451.118 415.276 451.306 405.528 452.72 395.916C456.491 396.051 458.376 396.187 462.147 396.458C461.958 409.184 460.356 428.273 470.537 435.177C472.799 435.583 473.93 435.854 476.287 436.26C467.049 428.137 467.991 409.861 467.709 396.864C471.479 397.134 473.459 397.27 477.324 397.405C477.795 406.882 478.738 416.359 479.963 425.836C484.017 430.845 486.562 437.343 487.316 445.196Z" fill="#3AAA35"/>
<path d="M505.602 468.347C501.737 472.544 496.929 475.387 492.782 475.387C484.392 475.387 490.236 462.119 489.105 445.602C488.54 437.75 487.126 433.553 483.544 428.138C480.244 417.307 480.433 395.646 491.933 397C495.515 397.406 500.229 401.467 503.151 406.07C506.45 417.984 508.43 424.889 510.881 435.855C504.754 434.636 502.868 434.365 496.27 433.959C497.118 436.667 497.495 438.292 497.872 441.27C504.282 441.947 506.168 442.218 512.012 443.436C512.578 454.538 510.881 459.547 505.602 468.347Z" fill="#3AAA35"/>
<path d="M464.223 378.318C465.26 377.235 465.731 376.693 466.862 375.61C463.846 380.62 461.866 384.41 460.735 390.367C462.714 389.826 463.846 389.555 465.825 389.149C465.825 394.564 466.579 396.459 469.69 398.896C465.26 397.949 462.337 398.49 458.85 398.084C451.685 397.001 457.341 386.441 464.223 378.318Z" fill="#006633"/>
<path d="M470.259 372.497C472.992 370.33 474.406 369.383 477.329 367.894C476.669 373.038 476.198 375.881 476.48 380.62C474.501 380.62 473.558 380.62 471.484 380.89C471.484 381.567 471.484 381.973 471.484 382.65C473.558 382.515 474.501 382.515 476.48 382.65C476.952 386.576 478.177 387.66 478.366 392.127C476.009 391.586 474.784 391.315 472.144 391.315C472.144 392.127 472.238 392.533 472.333 393.346C474.972 393.616 476.198 393.887 478.648 394.699C479.12 399.709 479.78 401.604 481.194 405.259C477.423 401.739 475.538 400.521 470.542 399.167C464.32 393.616 466.205 384.14 470.259 372.497Z" fill="#006633"/>
<path d="M480.816 388.2C479.591 387.793 479.025 387.658 477.8 387.387C476.668 379.806 477.046 375.609 477.988 367.486C481.099 365.861 482.796 365.184 486.001 364.372C485.624 375.609 485.529 381.701 488.075 390.907C486.849 390.366 486.189 390.095 484.964 389.553C487.321 399.301 487.698 404.581 489.112 414.058C487.509 412.027 486.661 410.944 485.152 409.184C483.173 401.467 482.513 397.27 480.816 388.2Z" fill="#006633"/>
<path d="M491.94 392.532C490.714 391.99 490.054 391.72 488.829 391.313C486.189 381.972 486.284 375.88 486.566 364.372C489.866 363.56 491.468 363.289 494.768 363.289C495.145 377.504 495.333 385.086 499.481 395.646C498.161 395.104 497.501 394.833 496.276 394.292C500.424 405.799 500.235 413.246 500.141 426.919C498.444 425.159 497.596 424.347 495.899 422.452C495.427 410.132 495.428 403.498 491.94 392.532Z" fill="#006633"/>
<path d="M57.3829 271.906C63.6044 239.279 74.8221 212.338 92.544 190C99.5197 182.283 103.479 178.898 112.151 172.671C132.418 156.29 123.557 188.105 122.143 206.11C121.955 209.224 121.861 210.713 121.766 213.963C121.012 226.959 117.242 241.581 109.041 248.485C119.033 257.014 120.729 275.291 117.713 290.183C116.676 299.795 116.299 304.804 115.356 315.635C111.491 339.056 106.307 361.259 88.2078 367.351C74.2565 371.954 61.2478 365.185 55.9689 345.148C51.727 319.426 52.7639 297.494 57.3829 271.906ZM68.5063 275.832C71.617 283.955 76.4246 292.755 81.6092 294.38C83.1175 286.798 83.8716 283.143 85.7569 275.968C80.478 275.155 75.9533 267.709 72.5597 261.346C70.7686 267.168 70.0145 270.011 68.5063 275.832ZM82.9289 226.147C86.1339 228.719 88.0193 230.344 93.5809 232.104C94.9949 225.876 95.9376 222.627 97.0688 217.618C91.9784 216.806 90.0931 215.858 86.9823 214.233C85.6626 218.295 84.6257 221.002 82.9289 226.147Z" fill="#C1905A"/>
<path d="M107.158 384.816C122.806 346.232 126.388 299.931 128.368 256.068C129.876 222.763 124.22 184.45 139.774 156.155C148.446 151.688 157.496 147.626 166.357 144.241C186.812 134.9 188.604 163.466 197.182 184.315C201.235 193.927 203.309 200.019 207.362 213.016C215.564 238.197 214.432 256.068 209.625 281.655C215.281 318.208 216.129 355.98 203.498 389.826C192.28 389.419 181.062 390.096 169.75 390.367C176.82 363.02 175.783 336.62 173.05 308.325C170.505 308.867 169.185 309.002 166.64 309.544C164.472 337.703 162.586 366.54 150.897 390.502C136.286 390.232 121.581 388.336 107.158 384.816ZM163.152 229.397C168.902 227.637 171.73 226.689 177.574 224.794C175.878 216.265 174.935 212.204 173.427 204.487C168.148 206.247 165.508 207.194 160.324 208.954C161.361 216.807 162.021 220.868 163.152 229.397Z" fill="#C1905A"/>
<path d="M196.8 133.815C212.637 129.483 228.474 125.828 244.405 122.985C243.839 144.917 268.819 159.538 279.189 169.015C264.86 171.723 250.438 174.295 236.109 176.867C239.22 181.199 240.917 183.501 244.028 188.781C259.204 186.209 274.287 183.636 289.464 180.929C308.034 202.454 322.739 222.626 333.109 253.764C312.842 255.931 292.574 257.961 272.213 260.263C273.721 267.709 274.758 271.77 276.361 280.976C298.136 279.081 320.006 277.456 341.781 275.696C351.491 316.717 354.036 358.009 338.388 396.864C295.12 391.042 251.757 390.636 208.301 389.689C228.002 346.095 232.527 280.299 219.236 230.885C213.203 208.547 182.378 156.831 196.8 133.815Z" fill="#C1905A"/>
<path d="M425.4 401.603C415.407 403.363 405.038 404.176 394.952 403.905C401.362 390.502 404.661 376.828 408.055 361.53C400.89 361.936 397.497 361.936 390.427 361.801C387.316 376.558 384.205 389.825 378.267 402.822C367.803 401.603 357.34 399.979 346.97 398.354C376.287 316.583 344.142 232.646 298.235 181.2C289.845 172.942 230.835 123.527 271.935 117.3C278.722 116.217 283.341 120.955 289.28 125.017C312.186 140.45 336.695 150.739 359.696 165.902C390.05 189.188 413.334 214.775 429.264 259.045C445.761 304.534 446.327 358.687 425.4 401.603ZM334.81 187.157C343.577 196.769 351.307 206.111 359.225 217.077C365.635 215.858 368.746 215.181 375.25 213.692C367.332 202.456 358.471 192.573 349.233 183.773C343.483 185.262 340.655 185.939 334.81 187.157Z" fill="#C1905A"/>
<path d="M433.123 400.114C462.723 331.881 446.886 244.288 402.864 196.092C382.503 173.889 358.936 158.726 335.181 145.865C324.435 140.044 298.417 133.274 294.176 116.216C297.004 115.945 298.418 115.81 300.868 115.539V115.404C303.979 115.133 305.393 114.998 307.938 114.727C346.399 114.998 384.576 117.705 422.565 127.318C456.124 137.742 489.494 151.957 517.208 182.283C579.141 251.87 540.586 357.333 476.957 385.898C462.534 391.991 448.017 397 433.123 400.114ZM442.833 197.717C451.317 193.655 455.747 191.218 464.514 185.938C455.276 177.409 446.32 170.234 436.423 163.329C428.693 168.068 424.922 170.234 417.287 173.889C426.148 181.065 434.82 188.375 442.833 197.717Z" fill="#C1905A"/>
<ellipse cx="53.2885" cy="679.752" rx="3.46554" ry="3.46561" fill="#E15034"/>
<path d="M20.3611 654.626L20.368 683.217" stroke="#6AC795" stroke-width="6.93107" stroke-linejoin="round"/>
<path d="M33.7864 645.963V673.444C33.7864 676.928 36.6108 679.752 40.0949 679.752H45.4826" stroke="#FFC700" stroke-width="6.93107" stroke-linejoin="round"/>
<path d="M20.3611 683.219C20.3611 667.848 27.47 658.094 45.4862 658.094" stroke="#049DBF" stroke-width="6.93107" stroke-linejoin="round"/>
<path d="M347.756 103.678V97.1129L364.942 81.6349C367.13 79.6601 368.037 78.2725 368.037 76.778C368.037 74.3229 366.062 73.0953 363.287 73.0953H362.433C359.551 73.0953 357.309 74.1628 357.309 77.5786V78.0056H348.343V76.2443C348.343 68.612 354.054 64.6091 362.38 64.6091H364.141C371.773 64.6091 377.164 68.6654 377.164 75.8707C377.164 80.3006 375.082 84.1434 370.599 88.0396L362.059 95.5118L368.197 95.1915H377.484V103.678H347.756ZM395.501 104.478C386.321 104.478 380.716 98.8742 380.716 89.8009V79.2865C380.716 70.2132 386.321 64.6091 395.501 64.6091H398.703C407.883 64.6091 413.487 70.2132 413.487 79.2865V89.8009C413.487 98.8742 407.883 104.478 398.703 104.478H395.501ZM397.635 95.7786C402.439 95.7786 404.2 93.9106 404.2 89.0003V80.0871C404.2 75.1769 402.439 73.3088 397.635 73.3088H396.515C391.764 73.3088 390.003 75.1769 390.003 80.0871V89.0003C390.003 93.9106 391.764 95.7786 396.515 95.7786H397.635ZM416.953 103.678V95.2449H426.08V103.678H416.953ZM426.61 74.1094V65.4097H442.782V103.678H433.709V74.1094H426.61ZM447.151 103.678V97.1129L464.337 81.6349C466.526 79.6601 467.433 78.2725 467.433 76.778C467.433 74.3229 465.458 73.0953 462.683 73.0953H461.829C458.947 73.0953 456.705 74.1628 456.705 77.5786V78.0056H447.738V76.2443C447.738 68.612 453.449 64.6091 461.775 64.6091H463.537C471.169 64.6091 476.56 68.6654 476.56 75.8707C476.56 80.3006 474.478 84.1434 469.995 88.0396L461.455 95.5118L467.593 95.1915H476.88V103.678H447.151Z" fill="#C1905A"/>
<path d="M154.095 54.6274V16.3594L175.338 16.3594C181.315 16.3594 185.211 20.309 185.211 26.0198V26.4468C185.211 30.2896 183.61 33.1183 180.835 34.6661C184.197 36.1606 186.172 39.3629 186.172 43.7928V44.4867C186.172 50.5711 181.902 54.6274 175.338 54.6274H154.095ZM173.47 46.5682C175.444 46.5682 177.099 45.394 177.099 43.2057V42.5119C177.099 40.3236 175.444 39.1494 173.47 39.1494H163.222V46.5682H173.47ZM172.616 31.4638C174.537 31.4638 176.138 30.343 176.138 28.1547V27.5676C176.138 25.4327 174.537 24.3119 172.616 24.3119H163.222V31.4638H172.616ZM204.564 55.428C195.971 55.428 189.887 49.5037 189.887 40.2703V16.3594H199.227V39.5764C199.227 44.4867 201.415 46.5148 205.631 46.5148H207.66C211.929 46.5148 214.118 44.4867 214.118 39.5764V16.3594H223.404V40.2703C223.404 49.5037 217.32 55.428 208.727 55.428L204.564 55.428ZM228.733 16.3594L247.787 16.3594C254.779 16.3594 259.849 21.3764 259.849 28.1547V30.2896C259.849 35.787 257.181 39.7365 252.324 41.4978L254.405 44.1131L261.717 54.6274H250.83L242.877 42.9922H237.967V54.6274H228.733V16.3594ZM246.186 34.8796C249.122 34.8796 250.616 33.3318 250.616 30.3964V29.2755C250.616 26.34 249.122 24.7389 246.133 24.7389H237.86V34.8796H246.186ZM278.361 55.428C269.768 55.428 263.736 49.1301 263.736 40.2703V30.7166C263.736 21.8568 269.768 15.5588 278.361 15.5588H283.324C291.757 15.5588 297.681 21.4832 298.002 29.9694H288.715C288.288 26.0198 286.153 24.1518 282.203 24.1518H279.535C275.158 24.1518 273.023 26.5002 273.023 31.1969V39.7899C273.023 44.5401 275.212 46.8351 279.535 46.8351H282.417C286.313 46.8351 288.555 44.967 288.928 41.0708H281.349V33.8122H298.002V40.2703C298.002 49.1301 291.971 55.428 283.324 55.428H278.361ZM302.902 54.6274V16.3594H330.549V24.7389L312.082 24.7389V31.3037L328.841 31.3037V39.4697H312.082V46.1946H330.816V54.6274H302.902ZM335.478 16.3594H354.532C361.524 16.3594 366.594 21.3764 366.594 28.1547V30.2896C366.594 35.787 363.926 39.7365 359.069 41.4978L361.15 44.1131L368.462 54.6274H357.574L349.622 42.9922H344.712V54.6274H335.478V16.3594ZM352.931 34.8796C355.866 34.8796 357.361 33.3318 357.361 30.3964V29.2755C357.361 26.34 355.866 24.7389 352.878 24.7389L344.605 24.7389V34.8796H352.931ZM17.12 103.627V65.3594H43.5927V74.0057H26.3V81.211H41.8848V89.6439H26.3L26.3 103.627H17.12ZM47.9238 65.3594H66.9777C73.9695 65.3594 79.0399 70.3764 79.0399 77.1547V79.2896C79.0399 84.787 76.3713 88.7365 71.5144 90.4978L73.5959 93.1131L80.9079 103.627H70.02L62.0675 91.9922H57.1572V103.627H47.9238L47.9238 65.3594ZM65.3766 83.8796C68.312 83.8796 69.8065 82.3318 69.8065 79.3964V78.2755C69.8065 75.34 68.312 73.7389 65.3232 73.7389H57.0505L57.0505 83.8796H65.3766ZM83.8343 103.627V65.3594H93.1211V103.627H83.8343ZM99.1071 103.627V65.3594H117.787C126.487 65.3594 132.572 71.6573 132.572 80.5172V88.4697C132.572 97.3295 126.434 103.627 117.787 103.627H99.1071ZM116.667 94.8744C120.99 94.8744 123.231 92.5793 123.231 88.1494V80.8374C123.231 76.3541 120.99 74.0591 116.667 74.0591H108.341V94.8744H116.667ZM131.805 103.627L147.176 65.3594H156.73L171.995 103.627H162.014L159.452 96.7424H144.455L141.839 103.627H131.805ZM147.07 88.7365H156.89L151.927 75.4468L147.07 88.7365ZM180.925 103.627V90.7647L166.354 65.3594H177.082L182.74 75.8204L185.515 81.5846L188.397 75.8204L193.948 65.3594H204.676L190.212 90.7113V103.627H180.925Z" fill="#BE1622"/>
<path d="M20.5569 28.6274H17.5871L17.5871 16.3189H26.222V19.1171H20.5569V28.6274ZM24.131 28.6274L29.075 16.3189H32.1478L37.0575 28.6274H33.8474L33.0233 26.4129H28.1995L27.3583 28.6274H24.131ZM29.0407 23.8379L32.1993 23.8379L30.6028 19.5634L29.0407 23.8379ZM41.6472 28.8849C38.8834 28.8849 36.9092 26.8593 36.9092 24.0096V20.9367C36.9092 18.087 38.8834 16.0614 41.6472 16.0614H43.0892C45.9733 16.0614 47.8444 18.087 47.8444 21.0912L44.8574 21.0912C44.8402 19.5806 44.1364 18.8767 42.7631 18.8767H41.9906C40.6001 18.8767 39.9134 19.6149 39.9134 21.1256V23.8207C39.9134 25.3314 40.6172 26.0696 41.9906 26.0696H42.7631C44.1364 26.0696 44.8402 25.3486 44.8574 23.8379L47.8444 23.8379C47.8444 26.8249 45.9733 28.8849 43.0892 28.8849H41.6472ZM51.9395 28.6274V19.1342L48.283 19.1342V16.3189L58.5487 16.3189V19.1342H54.9094V28.6274H51.9395ZM59.7664 16.3189H66.0666C68.3154 16.3189 69.9462 17.9325 69.9462 20.1814V21.3144C69.9462 23.6491 68.3154 25.3486 66.0837 25.3486L62.7362 25.3658V28.6274H59.7664V16.3189ZM62.719 19.0484V22.5676H65.5344C66.4786 22.5676 66.9764 22.0526 66.9764 21.0741V20.5419C66.9764 19.5634 66.4786 19.0484 65.5172 19.0484H62.719ZM75.5621 28.8849C72.781 28.8849 70.8069 26.8593 70.8069 24.0096V20.9367C70.8069 18.087 72.781 16.0614 75.5621 16.0614H77.3302C80.1284 16.0614 82.0854 18.087 82.0854 20.9367V24.0096C82.0854 26.8593 80.1113 28.8849 77.3302 28.8849H75.5621ZM76.9697 26.0696C78.3774 26.0696 79.0812 25.3143 79.0812 23.8207V21.1256C79.0812 19.6149 78.3774 18.8767 76.9697 18.8767H75.9054C74.4977 18.8767 73.811 19.6149 73.811 21.1256V23.8207C73.811 25.3314 74.5149 26.0696 75.9054 26.0696H76.9697ZM22.5311 44.0266C19.5269 44.0266 17.2781 42.0181 17.2781 39.3229V37.6749C17.2781 34.9797 19.5269 32.9712 22.5311 32.9712H23.2864V31.2889H26.1876V32.9712H26.9258C29.93 32.9712 32.196 34.9797 32.196 37.6749V39.3229C32.196 42.0181 29.93 44.0266 26.9258 44.0266H26.1876L26.1876 45.7433H23.2864V44.0266H22.5311ZM26.8571 41.2284C28.4021 41.2284 29.209 40.4731 29.209 38.9796V38.0182C29.209 36.5247 28.4021 35.7694 26.8571 35.7694H26.1533V41.2284H26.8571ZM20.2651 38.9796C20.2651 40.4731 21.0548 41.2284 22.6169 41.2284H23.3036V35.7694H22.6169C21.0548 35.7694 20.2651 36.5247 20.2651 38.0182V38.9796ZM33.5803 44.6274V32.3189H42.4727V35.0141H36.533V37.1256H41.9234V39.7521H36.533V41.9151H42.5585V44.6274H33.5803ZM48.1518 44.8849C45.388 44.8849 43.4138 42.8593 43.4138 40.0096V36.9367C43.4138 34.087 45.388 32.0614 48.1518 32.0614H49.5938C52.4779 32.0614 54.349 34.087 54.349 37.0912H51.362C51.3448 35.5806 50.641 34.8767 49.2677 34.8767H48.4952C47.1047 34.8767 46.418 35.6149 46.418 37.1256V39.8207C46.418 41.3314 47.1218 42.0696 48.4952 42.0696H49.2677C50.641 42.0696 51.3448 41.3486 51.362 39.8379H54.349C54.349 42.8249 52.4779 44.8849 49.5938 44.8849H48.1518ZM58.4441 44.6274L58.4441 35.1342H54.7876V32.3189H65.0533V35.1342H61.414L61.414 44.6274H58.4441ZM65.8737 36.7479L67.2127 32.3189H70.1826L68.5345 36.7479H65.8737ZM70.6831 44.6274V42.5159L76.2108 37.5376C76.9146 36.9024 77.2064 36.4561 77.2064 35.9754C77.2064 35.1857 76.5713 34.7909 75.6786 34.7909H75.4039C74.4769 34.7909 73.7559 35.1342 73.7559 36.2329V36.3702L70.8719 36.3702V35.8037C70.8719 33.3489 72.7087 32.0614 75.3868 32.0614H75.9533C78.4081 32.0614 80.142 33.366 80.142 35.6836C80.142 37.1084 79.4725 38.3444 78.0304 39.5976L75.2838 42.0009L77.2579 41.8979H80.245V44.6274L70.6831 44.6274ZM80.7421 42.5503V40.3701L85.4458 32.3189H88.8448L84.3643 39.8722H87.1453L87.2998 37.4861H89.892V39.8722H91.1967V42.5503H89.892V44.6274H86.9908V42.5503H80.7421Z" fill="#432918"/>
<path d="M444.518 18.6178L444.518 19.6354L443.784 19.6354C443.128 19.6354 442.659 20.1344 442.659 20.8291L442.659 23.6274L441.582 23.6274L441.582 20.7215C441.582 19.3614 442.404 18.6178 443.764 18.6178L444.518 18.6178ZM447.011 23.7644C445.583 23.7644 444.81 22.9719 444.81 21.5727L444.81 20.6726C444.81 19.2832 445.583 18.4906 447.011 18.4906L447.217 18.4906C448.635 18.4906 449.408 19.2832 449.408 20.6726L449.408 21.5727L445.876 21.5727L445.876 21.6314C445.876 22.375 446.277 22.7958 447.001 22.7958L447.217 22.7958C447.755 22.7958 448.107 22.5609 448.254 22.1598L449.36 22.1598C449.164 23.1871 448.43 23.7644 447.217 23.7644L447.011 23.7644ZM445.876 20.7117L448.352 20.7117L448.352 20.6138C448.352 19.8604 447.951 19.4495 447.227 19.4495L447.001 19.4495C446.277 19.4495 445.876 19.8604 445.876 20.6138L445.876 20.7117ZM451.855 23.7644C450.593 23.7644 449.928 23.0599 449.928 22.1206L451.004 22.1206C451.014 22.512 451.19 22.8056 451.924 22.8056L452.315 22.8056C452.981 22.8056 453.235 22.6099 453.235 22.2674C453.235 21.8858 452.971 21.7391 452.501 21.651C452.335 21.6216 451.679 21.4847 451.484 21.4455C450.613 21.2694 450.006 20.9465 450.006 19.9485C450.006 19.019 450.701 18.4906 451.934 18.4906L452.345 18.4906C453.597 18.4906 454.253 19.1951 454.253 20.0953L453.166 20.0953C453.166 19.743 453 19.4397 452.276 19.4397L452.002 19.4397C451.347 19.4397 451.092 19.6256 451.092 19.9779C451.092 20.3399 451.347 20.4867 451.797 20.5747C451.983 20.6138 452.619 20.741 452.834 20.7802C453.695 20.9465 454.321 21.2792 454.321 22.287C454.321 23.2263 453.626 23.7644 452.374 23.7644L451.855 23.7644ZM454.94 17.4437L456.017 17.4437L456.017 18.6178L457.543 18.6178L457.543 19.5865L456.017 19.5865L456.017 21.5825C456.017 22.4044 456.555 22.6392 457.201 22.6392L457.66 22.6392L457.66 23.6274L457.034 23.6274C455.753 23.6274 454.94 22.9915 454.94 21.6608L454.94 17.4437ZM461.23 18.6178L461.23 19.6354L460.496 19.6354C459.84 19.6354 459.371 20.1344 459.371 20.8291L459.371 23.6274L458.294 23.6274L458.294 20.7215C458.294 19.3614 459.116 18.6178 460.476 18.6178L461.23 18.6178ZM463.723 23.7644C462.295 23.7644 461.522 22.9719 461.522 21.5727L461.522 20.6726C461.522 19.2832 462.295 18.4906 463.723 18.4906L463.958 18.4906C465.377 18.4906 466.15 19.2832 466.15 20.6726L466.15 21.5727C466.15 22.9719 465.377 23.7644 463.958 23.7644L463.723 23.7644ZM463.938 22.7468C464.662 22.7468 465.064 22.3261 465.064 21.5825L465.064 20.6726C465.064 19.9192 464.662 19.4984 463.938 19.4984L463.733 19.4984C463.009 19.4984 462.608 19.9192 462.608 20.6726L462.608 21.5825C462.608 22.3261 463.009 22.7468 463.733 22.7468L463.938 22.7468ZM467.002 23.6274L467.002 22.4142L468.127 22.4142L468.127 23.6274L467.002 23.6274ZM472.18 18.6178L472.18 19.6354L471.446 19.6354C470.79 19.6354 470.321 20.1344 470.321 20.8291L470.321 23.6274L469.244 23.6274L469.244 20.7215C469.244 19.3614 470.066 18.6178 471.426 18.6178L472.18 18.6178ZM474.923 23.7644C473.523 23.7644 472.78 23.011 472.78 21.6216L472.78 18.6178L473.856 18.6178L473.856 21.6021C473.856 22.3163 474.238 22.7175 474.913 22.7175L475.099 22.7175C475.774 22.7175 476.155 22.3163 476.155 21.6021L476.155 18.6178L477.232 18.6178L477.232 21.6216C477.232 23.011 476.478 23.7644 475.089 23.7644L474.923 23.7644Z" fill="#432918"/>
<path d="M429.994 29.2511L429.994 30.2687L429.26 30.2687C428.605 30.2687 428.135 30.7677 428.135 31.4624L428.135 34.2607L427.059 34.2607L427.059 31.3548C427.059 29.9947 427.881 29.2511 429.241 29.2511L429.994 29.2511ZM430.451 28.077L431.527 28.077L431.527 29.2511L433.053 29.2511L433.053 30.2198L431.527 30.2198L431.527 32.2158C431.527 33.0377 432.065 33.2725 432.711 33.2725L433.171 33.2725L433.171 34.2607L432.545 34.2607C431.263 34.2607 430.451 33.6248 430.451 32.2941L430.451 28.077ZM436.81 34.9359C434.99 34.9359 433.777 33.7324 433.777 31.8733L433.777 31.0221C433.777 29.1533 434.99 27.9498 436.81 27.9498L437.72 27.9498C439.54 27.9498 440.753 29.1533 440.753 31.0221L440.753 31.8733C440.753 32.8127 440.293 33.3606 439.432 33.3606C438.894 33.3606 438.532 33.1551 438.327 32.7931C438.092 33.1649 437.71 33.3606 437.26 33.3606L436.996 33.3606C436.125 33.3606 435.528 32.7637 435.528 31.7755L435.528 31.1102C435.528 30.1219 436.125 29.5251 436.996 29.5251L437.26 29.5251C437.612 29.5251 437.925 29.6425 438.15 29.8773L438.19 29.6034L438.855 29.6034L438.855 32.0005C438.855 32.4017 439.09 32.6072 439.403 32.6072C439.716 32.6072 439.931 32.4017 439.931 32.0005L439.931 30.9047C439.931 29.6132 439.07 28.7423 437.808 28.7423L436.742 28.7423C435.45 28.7423 434.599 29.6425 434.599 30.934L434.599 31.981C434.599 33.2725 435.45 34.1433 436.742 34.1433L439.217 34.1433L439.217 34.9359L436.81 34.9359ZM437.27 32.6072C437.769 32.6072 438.053 32.3136 438.053 31.707L438.053 31.1884C438.053 30.572 437.769 30.2785 437.27 30.2785L437.123 30.2785C436.614 30.2785 436.34 30.572 436.34 31.1884L436.34 31.707C436.34 32.3136 436.614 32.6072 437.123 32.6072L437.27 32.6072ZM444.518 29.2511L444.518 30.2687L443.784 30.2687C443.128 30.2687 442.659 30.7677 442.659 31.4624L442.659 34.2607L441.582 34.2607L441.582 31.3548C441.582 29.9947 442.404 29.2511 443.764 29.2511L444.518 29.2511ZM447.011 34.3977C445.583 34.3977 444.81 33.6052 444.81 32.206L444.81 31.3059C444.81 29.9165 445.583 29.1239 447.011 29.1239L447.217 29.1239C448.635 29.1239 449.408 29.9165 449.408 31.3059L449.408 32.206L445.876 32.206L445.876 32.2647C445.876 33.0083 446.277 33.4291 447.001 33.4291L447.217 33.4291C447.755 33.4291 448.107 33.1942 448.254 32.7931L449.36 32.7931C449.164 33.8204 448.43 34.3977 447.217 34.3977L447.011 34.3977ZM445.876 31.345L448.352 31.345L448.352 31.2471C448.352 30.4937 447.951 30.0828 447.227 30.0828L447.001 30.0828C446.277 30.0828 445.876 30.4937 445.876 31.2471L445.876 31.345ZM451.855 34.3977C450.593 34.3977 449.928 33.6932 449.928 32.7539L451.004 32.7539C451.014 33.1453 451.19 33.4389 451.924 33.4389L452.315 33.4389C452.981 33.4389 453.235 33.2432 453.235 32.9007C453.235 32.5191 452.971 32.3724 452.501 32.2843C452.335 32.2549 451.679 32.118 451.484 32.0788C450.613 31.9027 450.006 31.5798 450.006 30.5818C450.006 29.6523 450.701 29.1239 451.934 29.1239L452.345 29.1239C453.597 29.1239 454.253 29.8284 454.253 30.7286L453.166 30.7286C453.166 30.3763 453 30.073 452.276 30.073L452.002 30.073C451.347 30.073 451.092 30.2589 451.092 30.6112C451.092 30.9732 451.347 31.12 451.797 31.208C451.983 31.2471 452.619 31.3743 452.834 31.4135C453.695 31.5798 454.321 31.9125 454.321 32.9203C454.321 33.8596 453.626 34.3977 452.374 34.3977L451.855 34.3977ZM454.94 28.077L456.017 28.077L456.017 29.2511L457.543 29.2511L457.543 30.2198L456.017 30.2198L456.017 32.2158C456.017 33.0377 456.555 33.2725 457.201 33.2725L457.661 33.2725L457.661 34.2607L457.034 34.2607C455.753 34.2607 454.94 33.6248 454.94 32.2941L454.94 28.077ZM461.23 29.2511L461.23 30.2687L460.496 30.2687C459.84 30.2687 459.371 30.7677 459.371 31.4624L459.371 34.2607L458.294 34.2607L458.294 31.3548C458.294 29.9947 459.116 29.2511 460.476 29.2511L461.23 29.2511ZM463.723 34.3977C462.295 34.3977 461.522 33.6052 461.522 32.206L461.522 31.3059C461.522 29.9165 462.295 29.1239 463.723 29.1239L463.958 29.1239C465.377 29.1239 466.15 29.9165 466.15 31.3059L466.15 32.206C466.15 33.6052 465.377 34.3977 463.958 34.3977L463.723 34.3977ZM463.938 33.3801C464.662 33.3801 465.064 32.9594 465.064 32.2158L465.064 31.3059C465.064 30.5525 464.662 30.1317 463.938 30.1317L463.733 30.1317C463.009 30.1317 462.608 30.5525 462.608 31.3059L462.608 32.2158C462.608 32.9594 463.009 33.3801 463.733 33.3801L463.938 33.3801ZM467.002 34.2607L467.002 33.0475L468.127 33.0475L468.127 34.2607L467.002 34.2607ZM472.18 29.2511L472.18 30.2687L471.446 30.2687C470.79 30.2687 470.321 30.7677 470.321 31.4624L470.321 34.2607L469.244 34.2607L469.244 31.3548C469.244 29.9947 470.066 29.2511 471.426 29.2511L472.18 29.2511ZM474.923 34.3977C473.523 34.3977 472.78 33.6443 472.78 32.2549L472.78 29.2511L473.856 29.2511L473.856 32.2354C473.856 32.9496 474.238 33.3508 474.913 33.3508L475.099 33.3508C475.774 33.3508 476.155 32.9496 476.155 32.2354L476.155 29.2511L477.232 29.2511L477.232 32.2549C477.232 33.6443 476.478 34.3977 475.089 34.3977L474.923 34.3977Z" fill="#432918"/>
<path d="M417.116 45.0305C415.648 45.0305 414.552 43.9347 414.552 42.467L414.552 40.3634C414.552 38.8957 415.648 37.7999 417.116 37.7999L417.771 37.7999C419.366 37.7999 420.335 38.9838 420.335 40.3634L419.219 40.3634C419.209 39.4632 418.622 38.8957 417.722 38.8957L417.184 38.8957C416.264 38.8957 415.687 39.473 415.687 40.4025L415.687 42.4083C415.687 43.3378 416.264 43.9249 417.184 43.9249L417.722 43.9249C418.642 43.9249 419.219 43.3476 419.219 42.4377L420.344 42.4377C420.344 43.8858 419.337 45.0305 417.771 45.0305L417.116 45.0305ZM423.6 44.8936L422.524 44.8936L422.524 40.8917L420.811 40.8917L420.811 39.8839L425.273 39.8839L425.273 40.8917L423.6 40.8917L423.6 44.8936ZM427.472 45.0305C426.337 45.0305 425.643 44.375 425.643 43.4161C425.643 42.4572 426.337 41.8213 427.472 41.8213L429.077 41.8213L429.077 41.5669C429.077 41.0581 428.705 40.7058 428.118 40.7058L427.883 40.7058C427.335 40.7058 426.983 40.9994 426.905 41.4005L425.809 41.4005C425.995 40.2753 426.797 39.7567 427.922 39.7567L428.03 39.7567C429.449 39.7567 430.124 40.5199 430.124 41.8115L430.124 43.3281C430.124 43.8075 430.241 43.964 430.535 43.964L430.77 43.964L430.77 44.8936L430.222 44.8936C429.683 44.8936 429.4 44.6196 429.282 44.2869C429.018 44.7957 428.509 45.0305 427.922 45.0305L427.472 45.0305ZM427.942 44.1206C428.578 44.1206 429.077 43.7977 429.077 43.0834L429.077 42.6529L427.668 42.6529C427.081 42.6529 426.748 42.9562 426.748 43.3868C426.748 43.8271 427.081 44.1206 427.668 44.1206L427.942 44.1206ZM434.695 44.8936L434.695 42.8584L432.445 42.8584L432.445 44.8936L431.369 44.8936L431.369 39.8839L432.445 39.8839L432.445 41.831L434.695 41.831L434.695 39.8839L435.772 39.8839L435.772 44.8936L434.695 44.8936ZM440.888 46.4297L440.888 44.8936L436.691 44.8936L436.691 39.8839L437.767 39.8839L437.767 43.8564L439.998 43.8564L439.998 39.8839L441.074 39.8839L441.074 43.8564L441.906 43.8564L441.906 46.4297L440.888 46.4297ZM442.367 44.8936L442.367 39.8839L443.443 39.8839L443.443 42.1441L443.384 43.4259L443.844 42.6921L445.918 39.8839L447.024 39.8839L447.024 44.8936L445.948 44.8936L445.948 42.6431L446.016 41.3614L445.556 42.0854L443.482 44.8936L442.367 44.8936ZM447.663 44.8936L448.955 43.1226C448.279 42.9269 447.82 42.4181 447.82 41.5962L447.82 41.5082C447.82 40.5884 448.485 39.8839 449.6 39.8839L452.095 39.8839L452.095 44.8936L451.029 44.8936L451.029 43.2498L450.139 43.2498L448.964 44.8936L447.663 44.8936ZM449.728 42.3105L451.029 42.3105L451.029 40.8624L449.728 40.8624C449.199 40.8624 448.906 41.1168 448.906 41.5375L448.906 41.6256C448.906 42.0463 449.209 42.3105 449.728 42.3105ZM457.887 45.0305C456.419 45.0305 455.324 43.9347 455.324 42.467L455.324 40.3634C455.324 38.8957 456.419 37.7999 457.887 37.7999L458.543 37.7999C460.137 37.7999 461.106 38.9838 461.106 40.3634L459.991 40.3634C459.981 39.4632 459.394 38.8957 458.494 38.8957L457.956 38.8957C457.036 38.8957 456.459 39.473 456.459 40.4025L456.459 42.4083C456.459 43.3378 457.036 43.9249 457.956 43.9249L458.494 43.9249C459.413 43.9249 459.991 43.3476 459.991 42.4377L461.116 42.4377C461.116 43.8858 460.108 45.0305 458.543 45.0305L457.887 45.0305ZM462.131 44.8936L462.131 37.9368L463.246 37.9368L463.246 43.8075L465.624 43.8075L465.624 37.9368L466.739 37.9368L466.739 43.8075L469.107 43.8075L469.107 37.9368L470.223 37.9368L470.223 44.8936L462.131 44.8936ZM470.868 44.8936L473.676 37.9368L474.87 37.9368L477.659 44.8936L476.455 44.8936L475.839 43.3085L472.708 43.3085L472.072 44.8936L470.868 44.8936ZM473.06 42.2616L475.486 42.2616L474.273 39.1795L473.06 42.2616Z" fill="#432918"/>
</g>
<defs>
<clipPath id="clip0_494_7733">
<rect width="494.655" height="700" fill="white"/>
</clipPath>
</defs>
</svg>
