<svg width="945" height="1060" viewBox="0 0 945 1060" fill="none" xmlns="http://www.w3.org/2000/svg">
<g clip-path="url(#clip0_349_5643)">
<path d="M27.0239 300.725V566.107C27.0239 600.762 40.7904 633.997 65.2949 658.501C75.0624 668.269 86.2171 676.33 98.2959 682.494V972.55C98.2959 988.302 104.553 1003.41 115.692 1014.55C126.83 1025.69 141.937 1031.94 157.689 1031.94C173.441 1031.94 188.548 1025.69 199.687 1014.55C210.825 1003.41 217.082 988.302 217.082 972.55V682.494C229.161 676.33 240.316 668.269 250.083 658.501C274.588 633.997 288.354 600.762 288.354 566.107V300.725M152.938 300.725V566.107" stroke="#1F1F1F" stroke-opacity="0.05" stroke-width="55"/>
<path d="M571.764 1012.93C584.117 1000.58 590.581 984.246 590.581 966.776V339.227C474.647 339.227 423.106 455.185 423.106 496.026V710.742H486.631L459.681 966.776C459.681 984.246 466.253 1000.58 478.607 1012.93C490.96 1025.28 507.661 1032.23 525.131 1032.23C542.602 1032.23 559.41 1025.28 571.764 1012.93Z" stroke="#1F1F1F" stroke-opacity="0.05" stroke-width="55"/>
</g>
<defs>
<clipPath id="clip0_349_5643">
<rect width="945" height="1060" fill="white"/>
</clipPath>
</defs>
</svg>
