<svg width="945" height="1060" viewBox="0 0 945 1060" fill="none" xmlns="http://www.w3.org/2000/svg">
<g clip-path="url(#clip0_378_7063)">
<path d="M85.5333 830.253L79.0112 908.059C78.2636 945.114 78.1243 978.9 104.435 1005.21C143.246 1044.02 206.171 1044.02 244.982 1005.21C256.309 993.884 264.33 980.504 269.045 966.269L280.362 925.244M85.5333 830.253L34.1607 808.928L113.158 647.541M85.5333 830.253L280.362 925.244M113.158 647.541L71.9632 620.885L295.87 396.978L322.526 438.173M113.158 647.541L376.806 828.799M322.526 438.173L485.367 360.629L505.723 410.063M322.526 438.173L501.845 703.76M505.723 410.063L583.045 404.026C622.038 400.37 653.885 403.139 680.196 429.449C719.007 468.26 719.007 531.186 680.196 569.997C668.869 581.323 655.489 589.344 641.254 594.06L598.29 607.315M505.723 410.063L598.29 607.315M501.845 703.76L611.376 634.94L598.29 607.315M501.845 703.76L520.262 729.931L403.947 846.246L376.806 828.799M376.806 828.799L307.986 938.329L280.362 925.244" stroke="#1F1F1F" stroke-opacity="0.05" stroke-width="50"/>
</g>
<defs>
<clipPath id="clip0_378_7063">
<rect width="945" height="1060" fill="white"/>
</clipPath>
</defs>
</svg>
