<svg width="159" height="40" viewBox="0 0 159 40" fill="none" xmlns="http://www.w3.org/2000/svg">
<g clip-path="url(#clip0_248_11510)">
<path d="M1.02 39V10.2H5.94L6.24 14.7C7.04 13.14 8.24 11.88 9.84 10.92C11.48 9.96 13.24 9.48 15.12 9.48C15.76 9.48 16.36 9.52 16.92 9.6C17.48 9.68 17.96 9.76 18.36 9.84V15.06C17.92 14.94 17.36 14.84 16.68 14.76C16 14.68 15.26 14.64 14.46 14.64C12.22 14.64 10.32 15.38 8.76 16.86C7.2 18.3 6.42 20.2 6.42 22.56V39H1.02ZM35.9944 39.66C33.2744 39.66 30.8744 39.08 28.7944 37.92C26.7144 36.76 25.0944 35.06 23.9344 32.82C22.7744 30.54 22.1944 27.8 22.1944 24.6C22.1944 21.52 22.7744 18.86 23.9344 16.62C25.0944 14.34 26.6744 12.58 28.6744 11.34C30.7144 10.1 33.0544 9.48 35.6944 9.48C38.3344 9.48 40.5744 10.14 42.4144 11.46C44.2944 12.74 45.7144 14.46 46.6744 16.62C47.6744 18.78 48.1744 21.14 48.1744 23.7V25.14H27.4744C27.5544 28.34 28.3544 30.78 29.8744 32.46C31.4344 34.1 33.4944 34.92 36.0544 34.92C38.0944 34.92 39.7744 34.42 41.0944 33.42C42.4544 32.42 43.5944 30.92 44.5144 28.92L48.5944 31.62C47.2344 34.42 45.4944 36.46 43.3744 37.74C41.2944 39.02 38.8344 39.66 35.9944 39.66ZM27.7744 20.82H42.8944C42.5744 18.74 41.7744 17.06 40.4944 15.78C39.2144 14.5 37.5944 13.86 35.6344 13.86C33.5544 13.86 31.8344 14.46 30.4744 15.66C29.1144 16.82 28.2144 18.54 27.7744 20.82ZM65.242 39.6C62.802 39.6 60.522 39.16 58.402 38.28C56.282 37.4 54.482 36.04 53.002 34.2L56.542 30.72C58.702 33.48 61.682 34.86 65.482 34.86C67.242 34.86 68.642 34.54 69.682 33.9C70.722 33.26 71.242 32.2 71.242 30.72C71.242 29.52 70.702 28.64 69.622 28.08C68.542 27.48 66.622 26.92 63.862 26.4C62.062 26.04 60.442 25.56 59.002 24.96C57.602 24.36 56.482 23.5 55.642 22.38C54.802 21.22 54.382 19.72 54.382 17.88C54.382 16.12 54.862 14.62 55.822 13.38C56.782 12.1 58.042 11.12 59.602 10.44C61.202 9.76 62.962 9.42 64.882 9.42C69.562 9.42 73.122 10.92 75.562 13.92L72.382 17.58C71.502 16.42 70.422 15.58 69.142 15.06C67.862 14.5 66.462 14.22 64.942 14.22C63.222 14.22 61.942 14.58 61.102 15.3C60.262 15.98 59.842 16.8 59.842 17.76C59.842 18.88 60.322 19.7 61.282 20.22C62.242 20.74 63.982 21.28 66.502 21.84C68.502 22.28 70.262 22.86 71.782 23.58C73.342 24.3 74.542 25.24 75.382 26.4C76.262 27.56 76.702 29.06 76.702 30.9C76.702 33.66 75.642 35.8 73.522 37.32C71.442 38.84 68.682 39.6 65.242 39.6ZM94.2197 39.66C91.4997 39.66 89.4397 39.14 88.0397 38.1C86.6397 37.02 85.9397 34.98 85.9397 31.98V14.88H80.1197V10.2H85.9397V-0.120001H91.2797V10.2H99.6197V14.88H91.2797V30.84C91.2797 32.4 91.6197 33.46 92.2997 34.02C93.0197 34.54 94.0797 34.8 95.4797 34.8C96.1997 34.8 96.9397 34.7 97.6997 34.5C98.4997 34.26 99.1397 34.02 99.6197 33.78V38.76C98.9797 39.04 98.1597 39.26 97.1597 39.42C96.1597 39.58 95.1797 39.66 94.2197 39.66ZM105.551 39V10.2H110.471L110.771 14.7C111.571 13.14 112.771 11.88 114.371 10.92C116.011 9.96 117.771 9.48 119.651 9.48C120.291 9.48 120.891 9.52 121.451 9.6C122.011 9.68 122.491 9.76 122.891 9.84V15.06C122.451 14.94 121.891 14.84 121.211 14.76C120.531 14.68 119.791 14.64 118.991 14.64C116.751 14.64 114.851 15.38 113.291 16.86C111.731 18.3 110.951 20.2 110.951 22.56V39H105.551ZM140.406 39.66C137.766 39.66 135.406 39.04 133.326 37.8C131.286 36.52 129.666 34.74 128.466 32.46C127.306 30.18 126.726 27.54 126.726 24.54C126.726 21.54 127.306 18.92 128.466 16.68C129.666 14.4 131.286 12.64 133.326 11.4C135.406 10.12 137.766 9.48 140.406 9.48C143.046 9.48 145.386 10.12 147.426 11.4C149.506 12.64 151.126 14.4 152.286 16.68C153.486 18.92 154.086 21.54 154.086 24.54C154.086 27.54 153.486 30.18 152.286 32.46C151.126 34.74 149.506 36.52 147.426 37.8C145.386 39.04 143.046 39.66 140.406 39.66ZM140.406 34.74C142.846 34.74 144.826 33.84 146.346 32.04C147.906 30.2 148.686 27.7 148.686 24.54C148.686 21.38 147.906 18.9 146.346 17.1C144.826 15.3 142.846 14.4 140.406 14.4C137.966 14.4 135.966 15.3 134.406 17.1C132.886 18.9 132.126 21.38 132.126 24.54C132.126 27.7 132.886 30.2 134.406 32.04C135.966 33.84 137.966 34.74 140.406 34.74Z" fill="#F3EBDD"/>
</g>
<defs>
<clipPath id="clip0_248_11510">
<rect width="159" height="40" fill="white"/>
</clipPath>
</defs>
</svg>
