<svg width="44" height="44" viewBox="0 0 44 44" fill="none" xmlns="http://www.w3.org/2000/svg">
<path d="M22 0C9.84958 0 0 9.84958 0 22C0 34.1504 9.84958 44 22 44C34.1504 44 44 34.1504 44 22C44 9.84958 34.1504 0 22 0ZM30.4608 24.821C30.4608 24.821 32.4065 26.7415 32.8854 27.6329C32.8992 27.6528 32.9076 27.6681 32.9106 27.6787C33.1047 28.0042 33.1528 28.2616 33.055 28.451C32.8946 28.7673 32.3446 28.9231 32.1567 28.9369H28.7192C28.4808 28.9369 27.9812 28.875 27.3762 28.4579C26.911 28.1325 26.4527 27.5985 26.0058 27.0783C25.339 26.3037 24.7615 25.6346 24.1794 25.6346C24.1054 25.6343 24.0319 25.6459 23.9617 25.669C23.5217 25.811 22.9579 26.439 22.9579 28.1119C22.9579 28.6344 22.5454 28.9346 22.2544 28.9346H20.68C20.1437 28.9346 17.3502 28.7467 14.8752 26.1365C11.8456 22.9396 9.11854 16.5275 9.09562 16.4679C8.92375 16.0531 9.27896 15.8308 9.66625 15.8308H13.1381C13.601 15.8308 13.7523 16.1127 13.8577 16.3625C13.9815 16.6535 14.4352 17.8108 15.18 19.1125C16.3877 21.2346 17.1279 22.0962 17.7215 22.0962C17.8328 22.0949 17.9421 22.0666 18.04 22.0137C18.8146 21.5829 18.6702 18.8215 18.6358 18.2485C18.6358 18.1408 18.6335 17.0133 18.2371 16.4725C17.9529 16.0806 17.4694 15.9317 17.176 15.8767C17.2948 15.7128 17.4512 15.58 17.6321 15.4894C18.1637 15.2235 19.1217 15.1846 20.0727 15.1846H20.6021C21.6333 15.1983 21.8992 15.2648 22.2727 15.3587C23.029 15.5398 23.045 16.0279 22.9785 17.6985C22.9579 18.1729 22.9373 18.7092 22.9373 19.3417L22.9304 19.7817C22.9075 20.6319 22.88 21.5967 23.4804 21.9931C23.5578 22.0442 23.6489 22.0706 23.7417 22.0687C23.9502 22.0687 24.5781 22.0687 26.2785 19.1515C26.801 18.2115 27.2566 17.2359 27.6421 16.2319C27.6765 16.1723 27.7773 15.989 27.8965 15.9179C27.9853 15.8757 28.0822 15.853 28.1806 15.8515H32.2621C32.7067 15.8515 33.0115 15.9179 33.0687 16.0898C33.1696 16.3625 33.0504 17.1944 31.1873 19.7175L30.3554 20.8152C28.6665 23.029 28.6665 23.1412 30.4608 24.821Z" fill="#797672"/>
</svg>
