<svg width="44" height="44" viewBox="0 0 44 44" fill="none" xmlns="http://www.w3.org/2000/svg">
<path d="M30.6533 19.7998C27.8149 19.7998 27.422 22.6284 27.422 22.6284H33.4524C33.4524 22.6284 33.4917 19.7998 30.6533 19.7998ZM16.972 22.6284H11.6292V27.5391H16.7068C17.4729 27.5194 18.9068 27.3034 18.9068 25.1525C18.9068 22.5989 16.972 22.6284 16.972 22.6284Z" fill="#797672"/>
<path d="M22 0C9.85089 0 0 9.85089 0 22C0 34.1491 9.85089 44 22 44C34.1491 44 44 34.1491 44 22C44 9.85089 34.1491 0 22 0ZM26.6357 13.5143H34.208V15.7732H26.6357V13.5143ZM22.8054 25.3786C22.8054 30.9768 16.9714 30.8 16.9714 30.8H7.425V12.4339H16.9714C19.8786 12.4339 22.167 14.0348 22.167 17.325C22.167 20.6152 19.3679 20.8214 19.3679 20.8214C23.0607 20.8214 22.8054 25.3786 22.8054 25.3786ZM36.9679 25.0741H27.4509C27.4509 28.4821 30.6821 28.2661 30.6821 28.2661C33.7366 28.2661 33.6286 26.292 33.6286 26.292H36.8598C36.8598 31.5366 30.5741 31.1732 30.5741 31.1732C23.0411 31.1732 23.5223 24.1509 23.5223 24.1509C23.5223 24.1509 23.5125 17.0991 30.5741 17.0991C38.0089 17.1089 36.9679 25.0741 36.9679 25.0741Z" fill="#797672"/>
<path d="M18.2684 17.6095C18.2684 15.7041 16.972 15.7041 16.972 15.7041H11.6292V19.7996H16.6381C17.5024 19.7996 18.2684 19.5148 18.2684 17.6095Z" fill="#797672"/>
</svg>
