<svg width="44" height="44" viewBox="0 0 44 44" fill="none" xmlns="http://www.w3.org/2000/svg">
<path d="M22 0C9.8497 0 0 9.8497 0 22C0 34.1503 9.8497 44 22 44C34.1503 44 44 34.1503 44 22C44 9.8497 34.1503 0 22 0ZM32.1974 14.9618C31.8663 18.4405 30.4337 26.8824 29.7046 30.7787C29.3963 32.4273 28.789 32.9801 28.2012 33.0342C26.9237 33.1518 25.9534 32.1899 24.716 31.3787C22.7798 30.1095 21.6859 29.3193 19.8063 28.0808C17.6342 26.6495 19.0423 25.863 20.2802 24.5767C20.6042 24.2403 26.2332 19.1202 26.3422 18.6557C26.3557 18.5976 26.3688 18.3807 26.2398 18.2668C26.1108 18.1529 25.9213 18.1915 25.7843 18.2225C25.5901 18.2666 22.4969 20.3111 16.5045 24.356C15.6266 24.9589 14.8313 25.2527 14.1188 25.2373C13.3332 25.2203 11.8222 24.7932 10.6989 24.428C9.32117 23.9802 8.22614 23.7434 8.3215 22.9828C8.37118 22.5866 8.91674 22.1815 9.95819 21.7675C16.3717 18.9733 20.6483 17.1311 22.7881 16.2409C28.8977 13.6996 30.1672 13.2582 30.9947 13.2435C31.1767 13.2405 31.5837 13.2855 31.8472 13.4994C32.0226 13.6517 32.1343 13.8644 32.1604 14.0952C32.205 14.3818 32.2174 14.6724 32.1974 14.9618Z" fill="#797672"/>
</svg>
