<svg width="295" height="265" viewBox="0 0 295 265" fill="none" xmlns="http://www.w3.org/2000/svg">
<g clip-path="url(#clip0_606_6092)">
<rect width="295" height="265" fill="#272727"/>
<path d="M-448.981 83.0419C-474.491 83.0419 -497.048 77 -516.65 64.9163C-536.253 52.8326 -551.693 35.7811 -562.971 13.7618C-573.981 -8.25739 -579.486 -34.1703 -579.486 -63.9768C-579.486 -93.7833 -573.981 -119.696 -562.971 -141.715C-551.693 -164.003 -536.253 -181.189 -516.65 -193.273C-497.048 -205.625 -474.491 -211.801 -448.981 -211.801C-425.888 -211.801 -405.211 -206.699 -386.952 -196.495C-368.692 -186.559 -353.788 -172.462 -342.242 -154.202L-374.868 -134.868C-383.192 -147.757 -393.665 -157.693 -406.286 -164.674C-418.906 -171.656 -433.138 -175.147 -448.981 -175.147C-467.241 -175.147 -483.353 -170.582 -497.316 -161.452C-511.011 -152.322 -521.752 -139.433 -529.54 -122.784C-537.327 -106.404 -541.22 -86.8016 -541.22 -63.9768C-541.22 -41.4205 -537.327 -21.818 -529.54 -5.16933C-521.752 11.2108 -511.011 23.9659 -497.316 33.0958C-483.353 42.2257 -467.241 46.7907 -448.981 46.7907C-433.138 46.7907 -418.906 43.2998 -406.286 36.3181C-393.665 29.3364 -383.192 19.4009 -374.868 6.5116L-342.242 25.8456C-353.788 43.8369 -368.692 57.9346 -386.952 68.1386C-405.211 78.0741 -425.888 83.0419 -448.981 83.0419ZM-224.265 77V-170.314H-312.879V-204.954H-98.997V-170.314H-187.208V77H-224.265ZM-120.307 77L-10.3453 -204.954H22.2807L132.243 77H90.7552L63.7682 4.90044H-52.6384L-79.6253 77H-120.307ZM-40.1518 -29.7396H51.2817L6.1691 -152.188L-40.1518 -29.7396ZM169.007 77V-204.954H205.661V-88.1442H347.04V-204.954H384.097V77H347.04V-53.907H205.661V77H169.007ZM634.441 142.655V77H445.532V-205.356H482.992V42.36H611.079V-205.356H648.136V42.36H669.081V142.655H634.441ZM709.47 77V-204.954H746.527V14.5674L892.337 -204.954H928.186V77H890.323V-139.299L746.527 77H709.47ZM970.998 77L1036.65 -50.6847C1014.63 -52.8329 997.716 -60.2174 985.901 -72.8382C974.354 -85.459 968.581 -103.585 968.581 -127.215C968.581 -154.336 975.966 -174.073 990.735 -186.425C1005.5 -198.777 1026.18 -204.954 1052.76 -204.954H1178.84V77H1141.78V-49.0735H1075.32L1013.69 77H970.998ZM1057.2 -83.7135H1141.78V-170.314H1057.2C1040.81 -170.314 1028.46 -166.823 1020.14 -159.841C1011.81 -153.128 1007.65 -142.252 1007.65 -127.215C1007.65 -112.177 1011.81 -101.168 1020.14 -94.1861C1028.46 -87.2044 1040.81 -83.7135 1057.2 -83.7135Z" fill="#F3EBDD"/>
<path d="M-435.985 470V188.046H-309.912C-283.327 188.046 -262.785 194.223 -248.285 206.575C-233.516 218.927 -226.131 238.53 -226.131 265.382C-226.131 289.281 -231.904 307.541 -243.451 320.162C-254.998 332.783 -271.781 340.167 -293.8 342.315L-228.145 470H-271.244L-332.468 343.926H-399.331V470H-435.985ZM-399.331 308.884H-314.342C-298.231 308.884 -286.013 305.527 -277.688 298.814C-269.095 291.832 -264.799 280.688 -264.799 265.382C-264.799 250.345 -269.095 239.469 -277.688 232.756C-286.013 226.043 -298.231 222.686 -314.342 222.686H-399.331V308.884ZM-177.947 470V188.046H4.51701V222.686H-141.293V308.481H-8.3723V343.524H-141.293V435.36H9.35051V470H-177.947ZM154.358 475.236C131.802 475.236 110.991 470.806 91.9257 461.944C73.1288 453.083 57.8228 438.448 46.0076 418.04L76.2169 399.512C85.0783 412.401 95.8194 422.336 108.44 429.318C121.061 436.3 136.77 439.791 155.567 439.791C174.364 439.791 188.998 436.031 199.471 428.513C209.943 420.994 215.18 409.984 215.18 395.484C215.18 386.891 213.3 379.506 209.541 373.33C205.781 366.886 198.263 361.112 186.984 356.01C175.706 350.908 158.655 346.075 135.83 341.51C84.0042 330.232 58.0913 303.782 58.0913 262.16C58.0913 246.048 61.985 231.951 69.7722 219.867C77.5595 207.783 88.4349 198.385 102.398 191.672C116.362 184.69 132.608 181.199 151.136 181.199C173.692 181.199 193.026 185.898 209.138 195.297C225.518 204.695 239.079 216.242 249.82 229.937L221.624 252.896C213.032 243.497 203.23 235.173 192.221 227.923C181.211 220.672 167.382 217.047 150.733 217.047C135.159 217.047 122.135 220.807 111.662 228.326C101.458 235.576 96.3564 246.317 96.3564 260.549C96.3564 268.068 97.9676 274.915 101.19 281.091C104.681 286.999 110.991 292.235 120.121 296.8C129.251 301.365 142.543 305.527 159.997 309.286C193.295 316.268 217.194 326.741 231.694 340.704C246.463 354.668 253.848 372.793 253.848 395.081C253.848 412.267 249.551 426.901 240.958 438.985C232.634 450.8 220.953 459.796 205.916 465.972C191.147 472.148 173.961 475.236 154.358 475.236ZM375.969 470V222.686H287.355V188.046H501.237V222.686H413.026V470H375.969ZM545.424 470V188.046H671.498C698.082 188.046 718.624 194.223 733.125 206.575C747.894 218.927 755.278 238.53 755.278 265.382C755.278 289.281 749.505 307.541 737.958 320.162C726.411 332.783 709.629 340.167 687.609 342.315L753.264 470H710.166L648.941 343.926H582.078V470H545.424ZM582.078 308.884H667.067C683.179 308.884 695.397 305.527 703.721 298.814C712.314 291.832 716.61 280.688 716.61 265.382C716.61 250.345 712.314 239.469 703.721 232.756C695.397 226.043 683.179 222.686 667.067 222.686H582.078V308.884ZM919.466 476.042C893.956 476.042 871.399 470 851.797 457.916C832.194 445.833 816.754 428.781 805.476 406.762C794.466 384.743 788.962 358.83 788.962 329.023C788.962 299.217 794.466 273.304 805.476 251.285C816.754 228.997 832.194 211.811 851.797 199.727C871.399 187.375 893.956 181.199 919.466 181.199C944.976 181.199 967.398 187.375 986.732 199.727C1006.33 211.811 1021.64 228.997 1032.65 251.285C1043.93 273.304 1049.57 299.217 1049.57 329.023C1049.57 358.83 1043.93 384.743 1032.65 406.762C1021.64 428.781 1006.33 445.833 986.732 457.916C967.398 470 944.976 476.042 919.466 476.042ZM919.466 439.791C937.726 439.791 953.703 435.226 967.398 426.096C981.361 416.966 992.102 404.211 999.621 387.831C1007.41 371.182 1011.3 351.58 1011.3 329.023C1011.3 306.198 1007.41 286.596 999.621 270.216C992.102 253.567 981.361 240.678 967.398 231.548C953.703 222.418 937.726 217.853 919.466 217.853C901.206 217.853 885.094 222.418 871.131 231.548C857.436 240.678 846.695 253.567 838.908 270.216C831.12 286.596 827.227 306.198 827.227 329.023C827.227 351.58 831.12 371.182 838.908 387.831C846.695 404.211 857.436 416.966 871.131 426.096C885.094 435.226 901.206 439.791 919.466 439.791Z" fill="#F3EBDD"/>
</g>
<defs>
<clipPath id="clip0_606_6092">
<rect width="295" height="265" fill="white"/>
</clipPath>
</defs>
</svg>
